<?xml version="1.0" encoding="UTF-8"?>
<svg xmlns="http://www.w3.org/2000/svg" version="1.1" xmlns:inkscape="http://www.inkscape.org/namespaces/inkscape" xmlns:sodipodi="http://sodipodi.sourceforge.net/DTD/sodipodi-0.dtd" xmlns:svg="http://www.w3.org/2000/svg" viewBox="0 0 2522 1726">
  <!-- Generator: Adobe Illustrator 30.1.0, SVG Export Plug-In . SVG Version: 2.1.1 Build 136)  -->
  <defs>
    <style>
      .st0 {
        fill: #a09c98;
        stroke: #fff;
        stroke-miterlimit: 10;
      }
    </style>
  </defs>
  <g id="_x2DC_àð_x5F_1" inkscape:version="1.4.3 (0d15f75, 2025-12-25)" sodipodi:docname="USA-Map-with-Guam.svg">
    <sodipodi:namedview id="namedview94" bordercolor="#000000" borderopacity="0.25" inkscape:current-layer="_x2DC_àð_x5F_1" inkscape:cx="1261.5921" inkscape:cy="863" inkscape:deskcolor="#d1d1d1" inkscape:pagecheckerboard="0" inkscape:pageopacity="0.0" inkscape:showpageshadow="2" inkscape:window-height="1369" inkscape:window-maximized="1" inkscape:window-width="2560" inkscape:window-x="-8" inkscape:window-y="0" inkscape:zoom="0.67612978" pagecolor="#ffffff" showgrid="false"/>
    <path id="ME" class="st0" d="M2506.7,237s-1.4-3.5-2.5-3.8l-1.9-3.8-1.1-1.5.7-4.1s.1-1.9-1.4-3-6.3-4.8-7.6-8.2-3.5-5-6.6-4.9c-3.2.1-5.8-.1-5.8-.1,0,0-3.1-1.1-4.2-1.9-1.1-.8-3.4-1-5.7-.9s-6.1.2-6.1.2c0,0-2.8-.4-4-3.3-1.1-2.9-9.5-24.6-9.5-24.6l-11.2-30.6-5.2-14s-2.7-3.9-4.2-4.6c-1.5-.7-2.9-1.1-4.1-.5-1.2.5-4,0-6.8-1.9s-5.1-2.1-6.4-2.1-3.1,1.2-4.9,1.1c-1.7-.2-4.6-.7-6.7-2.2-2.2-1.5-4.5-2.1-4.5-2.1,0,0-2,5.3-5.7,6.8-3.7,1.5-7.6,2.7-8.4,2.7s-2.3-.7-4-3c-1.6-2.4-3.8-6.1-5.8-6.1l-18.7,49.7s-4.9,9.9.7,24.2c5.6,14.3,7.6,18.4,5.2,22.3-2.4,3.9-2.7,6.8-.9,10.2,1.7,3.4-.8,6.2-3.7,7.4s-4,2.1-2.9,6.4.7,13.1-6.7,13.8l-4.2-.3,42.5,115.1s4,10.1,9.4,8.6c0,0,5.8-4.9,7.3-8.5s2.1-9.1.4-10.9c0,0,9.6-2.6,9.7-9.8,0,0-3.5,1.7-5.2,0-1.7-1.6-1.4-3.3,1.8-5s7-3.6,6.9-6.2-2.8-5-4.2-6.3c-1.5-1.3-2.1-4.7.3-6.3,2.4-1.6,4.4-2.6,4.4-2.6,0,0,3.1-1.9,4.4,1.1,1.3,3,3.6,11,7.5,8.5s2.3-4.4.7-5.8c-1.5-1.4-4.1-5.3-2.2-8.9,1.9-3.6,4.9-5,5-8,.1-2.9,0-5.2,2.6-5.8,2.5-.6,3.8.8,4,2.8s.6,4.6,3.4,3.6c2.8-.9,3.6-2,2.1-4.4-1.5-2.5-1.5-5.6-.4-8.8,1.1-3.1.7-8.1-.3-13.2-.9-5.1-.8-12.5.4-14.5,0,0,4.6.8,5.6,6,.9,5.2.5,8,2.6,7.6s3.4-1,3.7-4.2.7-5.8,3.5-5.8,7.8,5,7.8,5c0,0,2.9,3.2,4.9,1.2s.9-2.8-.3-4.2c-1.1-1.5-3-4.4-1.9-5.7,1.1-1.3,2.2-.7,3.8,1.3,1.6,1.9,6.7,4,8.1,4,0,0-1.3-4.1-2.1-5.1s1.5-4.4,3.8-1.9c2.3,2.6,3.7,2.3,4.8.8s-.3-3.3-1.6-4.1c-1.3-.9-4-2.4-3-4.5,1.1-2.1,2.7-1.5,3.9-.5s3.6,3.1,5.8.3c2.2-2.8,3.1-6.4,2.7-6.8,0,0,5,.6,9.2-3s4.4-7.6,7.2-10c0,0-2.1-2.4-4.4-2.4h.2Z"/>
    <path id="CO" class="st0" d="M1108.2,650l5-50.6-85.9-10.8-204.9-25.7-2.6-.5-32.6,217.3c15.2,2.3,206.8,31.5,304.6,39.6l.2-2.2h-.2.2l16.3-167.2h0Z"/>
    <path id="UT" class="st0" d="M736.8,546.7l10.6-54.1-123.4-23.6-60.9,270.9,222.9,40.5v-.7s.5,0,1.1.2l32.6-217.3-83-15.8h.1Z"/>
    <path id="NV" class="st0" d="M508.1,439.3l-131.6-34.5-39.4,133.4s-1.4,9.6,4.2,8.5c0,0-8.5,13.4-9.5,15.9-1.1,2.5.7,4.6-1.1,6.4-1.8,1.8,177.9,272.4,177.9,272.4,0,0,6.4,2.1,6.4-6s-.7-16.3-2.5-20.9c-1.8-4.6-.4-9.5,1.1-13.1,1.4-3.5,3.9-6.4,3.9-11.7s4.6-16.3,14.9-15.9c10.3.4,9.5-1.1,11.7,3.9,2.1,5,8.8,9.2,8.8,9.2l10.3-47,60.9-270.9-115.9-29.7h-.1Z"/>
    <path id="KS" class="st0" d="M1410.3,697.4c0-12.7,6.4-11,6-17.3-.4-6.4-23.2-17.7-23.2-17.7-66.5,2.6-282.9-12.2-284.9-12.4l-16.3,167.2,333,13.3-3.2-115.1s-11.5-5.3-11.5-18h0Z"/>
    <path id="WY" class="st0" d="M1048.8,369.8l-265.3-40.7-6.8,28.4h.7l-30,135-10.6,54.1,83,15.8v-.9c0,0,0,.9,0,.9l2.6.5,204.9,25.7.3-1.6c-1.1-9.3,10.9-106.9,10.9-106.9l12.7-110.2c-1,.8-2.4,0-2.4,0h0Z"/>
    <path id="MO" class="st0" d="M1386.6,643.5c-1.2,3.3.8,4.8,4,8.6s2.5,10.2,2.5,10.2c0,0,22.8,11.3,23.2,17.7.4,6.4-6,4.6-6,17.3s11.5,18,11.5,18l3.2,115.1-.5,29.7,201.1-5.8s.2,3.2,1.9,5.3c1.8,2.1,2.1,3.5.7,6.4-1.4,2.8-1.4,9.5,2.8,9.5s19.1-1.8,19.1-1.8c0,0,3.2-4.2,3.2-9.2s1.1-8.1,1.4-9c0,.2-.3,0-.3-4.1s4.6-4.6,4.6-4.6l6,.4c11.3-2.1,8.5-17.7,5-19.8s-14.2-10.3-16.6-15.6c-2.5-5.3-1.1-14.9-2.8-20.2-1.8-5.3-5.3-10.3-8.5-10.3s-6.7-3.9-6.7-3.9c0,0-12.7-14.1-18.4-20.2-5.7-6-.4-7.1-.4-7.1,0,0,7.1-5.3,4.6-16.6s-9.2-13.1-14.2-12.4c-4.9.7-9.5-2.1-9.9-6.4-.3-4.2-2.1-8.8-6.7-11-4.6-2.1-4.6-8.5-4.6-8.5,0,0-7.8-3.5-10.6-4.6-2.8-1.1-6-5-10.3-8.5-4.2-3.5,1.4-11.7.7-17-.7-5.3-3.9-15.9-3.9-15.9-1.9,0-3.5-2.7-4.2-5.1-.7-2.5-.9-3.7-3.7-3.7s-3.2-.5-5.7-4.4-7.4-3.4-7.4-3.4l-154,2.3c2.8,2.8,1.1,5.2,0,8.2v.4Z"/>
    <path id="NE" class="st0" d="M1027.6,587l-.3,1.6,85.9,10.8-5,50.6h0v-1.1c0,0,0,1.1,0,1.1,2,0,218.3,15,284.9,12.4,0,0,.7-6.4-2.5-10.2s-5.2-5.3-4-8.6c1.1-3,2.8-5.4,0-8.2h-.4.4c-.3-.3-.6-.6-1.1-.9-4.2-3.2-10.7-6.9-10.9-20.3,0-13.4.3-23.9-4.1-27.9s-5.2-21.6-5.2-21.6c0,0-.7-6.8-4.2-8.2,0,0-1.2-1.3-1.2-6.5s-7.2-13.4-7.2-13.4c0,0,.3-8.5-.9-9.5-1.2-1.1-25.9-12.6-25.9-12.6,0,0-7.6-.4-11.7-.9s-8.8-4.9-18.2,0c-9.4,4.9-16.6,6.1-20.3,3.2-3.7-2.9-11.1-6.8-15-6.8s-8.4-3.8-13.1-3.8-12.6-2-16.3-4.5c-3.7-2.5-5.4-4-9.4-4s-10.5-4.6-10.5-4.6l-173.1-12.7s-11.9,97.6-10.9,106.9l.2-.3Z"/>
    <path id="AL" class="st0" d="M1761.2,1190.5c0-3.5,7.1-2.5,6.7-6s-3.5-6-3.5-9.6,1.1-16.6-3.5-17.7l119.9-7.8c1.8-10.3-3.9-21.2-6-35.7s.7-30.4,6-34.7c5.3-4.2,1.4-11,1.4-11l-17.7-31.5-23-108.9c-48.8,6.9-123.1,8.5-123.1,8.5,0,4.2,3.7,6.9,3.7,6.9l-6.4,171.4,5.8,83.6c4,0,6.2,0,7.7-2s2.5,0,4.2,0,5.4-1.1,5.4-3,.8-3.2-.7-4.5-.8-7-.8-7c0,0-1.1-.9.4-3.3s1.9-5.2-.5-10.1-3.2-9.3,1.2-14.2c0,0,.9-1.1.9-2.5,0,0,.8,4,1.7,7.3.9,3.3,3.8,6.8,3.8,7.7s-2.9,4.4-2.4,7.6,6,7.3,6.1,9.8-.5,7.6,1.6,8.2c2.1.7,5.3,3.7-.9,6.1-6.2,2.4-11.1,3.3-11,4.9s4.4.9,6.8,0,3.7-1.2,7.2-1.7c3.4-.5,12.5-1.2,13.4-6.1,0,0-4.6-1.3-4.6-4.9h.2Z"/>
    <path id="FL" class="st0" d="M2032.8,1144.5c-3.5,0-2.8,7.1-2.8,7.1,0,0-2.1,11.7-7.1,13.1s-5.3-7.4-5.3-7.4l-128.8,5-8.1-12.7-119.9,7.8c4.6,1.1,3.5,14.2,3.5,17.7s3.2,6,3.5,9.6c.3,3.5-6.7,2.5-6.7,6s4.6,4.9,4.6,4.9c0,0,12.7-.4,12.2-6.2-.5-5.8-2.7-7.4-.8-7.6,1.9,0,1.3,3.4,3.2,3.3,1.9,0,2.6-1.6,3.3-4.4s1-4.8,2.9-4.6c1.9.3,5.8,2.8,2.8,6.4-3,3.5-7.8,5.8-7.4,9.8s5,5.8,10.3,5.3c5.2-.5,15.2-1,15.3-5,0-4-8.1-1.2-11.5-.7s-7.7.3-7.6-1.5c0-1.7,4.9-3,9.2-3s8.5-1.1,8.5-1.1c0,0,2.2-6.2,7.1-6.6s14.3.4,14.2,3.3c0,2.9-4,4.7-6,3.8-1.9-.9-7.4-1.1-7.4.5s2.7,4.9,6.9,4.3c4.2-.6,11.1-4,14.3-3.3,3.3.7,8.9,5.4,10.4,7.2,1.5,1.8,6.8,3.2,5.7-1.1-1.1-4.3-.7-10,4.2-9.7,4.9.3,4.5,3.6,3.6,5-.9,1.5-.8,5.9,1.9,5.7,2.7-.2,5.6,0,5.7,2s-1.5,4.3-4.2,2.6c-2.8-1.7-7.4-3.6-7.4-3.6,0,0,.3,4,2.5,6.1,2.1,2.1,10.3,6.6,10.3,10.7s.3,8.2.3,8.2c0,0,0,4,3.5,2.6,3.4-1.5,5.8-2.7,8.9-2.8,3.1-.2,3.8-2.9,3.8-2.9,0,0,1.7-1.1,3.6-.4s5.6-2.1,6.3-2.9c.7-.8,3.7-1.1,4,.7.3,1.7.4,1.9-1.6,3.6s-5.9,4.3-4.1,5.2c1.8.9,6,1.1,8.9-1.8,2.9-2.8,4.6-5.7,2.7-8,0,0,3.9-1.5,2.9-4s5.5-3.8,8.4-3.5,5.9.6,4.9-3.7c-1-4.3-.7-7,2.5-7.1s3.8-1,3.8-2.5,4.2-2.3,6.5-1,4.8,2.5,6.8,2.5,6.7-1.8,6.8,2.4c0,4.2-.9,10.4,3.4,10.8,4.4.4,4.7.4,7.4,2.1,2.7,1.7,5,0,5.6-.4s4.9.4,3.3,3.4-3,6.8,2.2,10,11.9,3.7,11.9,8.2.3,12.3.3,12.3c0,0,8.8,0,13.7-4.9,0,0,1.7-2.2,3.4-1.3,1.8,1,2.6,2.7,1.1,5.1-1.5,2.5,0,4.5,2.2,6.5s5.7,4.2,6.3,10.3c.6,6.1,1.5,10.7,1.1,15.1-.5,4.3-.7,6.5-2.9,10.5-2.2,4-3.8,6.6-4.8,10-.9,3.4-2.7,5.6-2.2,9.1.4,3.6-.8,7.1,3.2,8.2s5.7,2.1,6,3.9,1.3,5.3,3.5,5.2c2.1,0,5.2-4,2.3-9s-4.2-7.4-4.8-10.5c-.6-3.1,3-4.6,4.9-1.7,1.9,2.8,1.7,11,3.9,11.5,2.3.5,2.8-.8,2.7-2.7,0-1.8,0-4.5,1.6-4.5s4.8,3.1,4.2,7c-.5,4-2.5,6.8-3.1,8.7-.5,1.9-1.7,4.4,1,5.2,2.7.8,5.2,3.4,2.3,4.4-2.8,1-4.2-2.2-4.9.2-.7,2.4-.8,3.7-2.5,3.2s-4.9-2.3-7-1.7c-2.1.7,1,3.5,1,3.5,0,0,3,2.6,2.7,5-.3,2.5-2.5,5.8-2.5,5.8,0,0,.8,2.1,1.7,3.1.9,1,2,3.7,3.8,4s3,.9,4.2,3.2c1.3,2.3,1.7,4.2,3.6,4s4.6-2.4,5.7.3c1.1,2.7,2.3,4.8,3.6,4.7,1.4,0,2.2-1.9,2.4-3.8.2-1.9,1-7,6.4-7s6.7,3.8,4.1,6.5c-2.6,2.6-5.6,5.6-2.7,6.5,2.9.9,5.2,4.5,3.8,7-1.5,2.5-6.3,2.5-9.2-.3-2.9-2.8-5.3-5.6-7.2-2.8-1.9,2.9,3.5,8.6,3.5,8.6,0,0-1.7,5.8,1.6,7.9,3.2,2.1,6,2,7.6,1.1,1.7-.9,4.2-.5,5.2,1.1.9,1.6,3.7,1.6,4.2-2.8s2.7-7.8,5.3-7.2c2.7.6,2.8,4.2,2.9,6.1.1,1.8,1.1,11.3,2.9,15.1,1.8,3.8,3.6,6.9,5.7,6.8,2.1,0,2.7,1.3,2.8,2.3.1,1.1,1.7,2.8,3.2,1.6,1.5-1.3,5.6-2,4.1.6s-3.1,4.8.1,4.9c3.2,0,8.8.5,10.3.2s4.5-3.1,6.8-2.6,2.1,5.6,2.2,7c.1,1.5,1.2,5.2-2.4,6.6-3.6,1.5-11.7,4.9-9.1,7.7,2.5,2.8,8-1.5,9.4-2.6s3.2-2.6,3.8-1.6-.5,3-5.6,6.6c-5.1,3.7,1.7,6.2,6.2,2.5,4.6-3.8,6.6-4,8.5-2.3,1.9,1.8,3.3,6-.9,7.2-4.2,1.1-11.6-.4-14.5,1.3-2.8,1.7-3.6,4.6-3.6,4.6,0,0,3,2.2,5,3.8,2,1.6,4.8,1.8,6.7,1.8s6.1-4.2,7.9-4.3c1.8,0,2.7,4.1,6.1,3.7,3.4-.5,2.5-5.4,2.5-5.7s0-3.3,5.7-4.9c5.7-1.7,11.3-7.6,11.3-7.6,0,0,1.9-1.3,0-3.2-2-1.9-4.8-5.2-5-7.7-.1-2.5-.5-5.5.9-9.6,1.4-4,4-11.1,7-15,2.9-3.8,6.4,0,6.9-3.8s-2.5-10.5-2.7-13c-.3-2.5-.9-3.8-.5-6.1.5-2.3,1.6-8.3,1.5-9.3s-2.8,2-3.7,2-2.5-5.4-1.7-7.8c.8-2.3,3.5-1.3,3.5-3.1s0-6.4-4-5.4-6.2-1.2-6.2-4.6-.9-9.9-1.6-12.5c-.7-2.7-.7-5.2-2.9-7.9-2.3-2.7-3.5-4.7-3.4-6.8.1-2.1,1.2-4.6,2.6-1.7,1.4,3,5.4,8.3,6.4,11,.9,2.7,1.5,15.6,6.6,13.3,5.1-2.3-3.7-15.4-5.8-19.2-2.2-3.8-5.1-11.3-7.8-15.1-2.7-3.8-4-9-5.3-12.6s-2.3-5.9-4.2-5.6-1.6,2.7.1,5.8c1.7,3.1,2.3,8,1.2,7.5s-3.6-4-6.2-8c-2.5-4-2.3-7-2.3-7,0,0,1.4.3,2.8-1,1.4-1.3.9-4.2.1-5.5-.7-1.3-3.6-11-6-11.1-2.5,0-.3,3.5-.3,3.5,0,0,.9,4.2.9,6.5s-.8,2.4-.8,2.4c0,0-4.3-1.6-6.1-6.6s-2.7-7.4-5.6-11.8c-2.9-4.4-6.7-12.1-6.7-14.1s2.3-2.7,3.4-.9,3.9,3.7,5.1,3.3c1.2-.5,2.7,5.3,4.9,3.3,2.3-2,1.3-6.8-4.4-14.3-5.6-7.4-6.6-8.3-8-7.2-1.5,1.1-.9,3-.9,3,0,0-1.7.7-3.2-2s-3.9-4.8-7-4.4l-3.6-4.2s-1.3-1.7.2-3.3c1.5-1.7,3.2-.3,3.2-.3,0,0,4.8,4.4,5.8,3.1s-2.3-4.7-2.3-4.7c0,0-2.8-3.4-3.4-5-.6-1.7-1.9-2.6-3.6-4.8-1.7-2.3-4.6-6.2-5.6-9.8-1.1-3.7-1.1-7.7-2.3-10.8-1.2-3.1-2-7-3.8-9.1-1.9-2.2-3.1-4.1-3.2-6.5-.1-2.4-.1-8.8-1.4-12.2-1.3-3.4-2.1-4.4-3.2-7.1-1.1-2.7-1.9-5.9-1-7.4s0-7.9,0-8.4l-1.4-.2c-10.6,5.7-18.4-1.4-21.9-1.4l-.2-.3Z"/>
    <path id="GA" class="st0" d="M2037.8,1018.4c-2.7-5.3-9.6-9-15.9-11.7-6.4-2.7-11.7-13.8-11.7-13.8,0,0-54.1-52-59.4-60s2.7-11.7,2.7-11.7l.5-5.3-112.5,11.7,23,108.9,17.7,31.5s3.9,6.7-1.4,11c-5.3,4.2-8.1,20.2-6,34.7s7.8,25.5,6,35.7l8.1,12.7,128.8-5s.4,8.8,5.3,7.4c5-1.4,7.1-13.1,7.1-13.1,0,0-.7-7.1,2.8-7.1s11.3,7.1,21.9,1.4l1.4.2c0-.5-.7-2.3-3.7-5.8-3.1-3.6-4.1-9.1-1-12.5,3.1-3.5,6.2-5.4,3.6-9-2.5-3.6-3-4.8,0-7.2,2.9-2.5,1.8-3.9.8-6.4s-.1-9.3,5.9-9.6c6-.3,5.2-4.2,4.2-7.6s0-4.8,1.3-7.6c1.4-2.8,8.3-7.7,8.4-11.8,0-4.1-5-12.5-15.8-6.8,0,0-2.2,1.2-2.3-2.7-.1-3.8.6-10.6-.5-13-.8-1.8-.3-2.9.5-2.6-2.3-2.2-8.3-7.8-11.3-9.1-3.7-1.6-5.8-10.6-8.5-15.9h0Z"/>
    <path id="LA" class="st0" d="M1665.7,1197.9c-2.1-1.1-5-1.4-5-4.2s-.4-5.3-3.5-8.1c-3.2-2.8-3.2-7.8-1.1-11.3s-.4-10.4-.4-10.4c0,0-85.2,3.8-86.5,2.1-3-4.1,3.4-5.8,3.4-10.4s1.1-10.6,5-15.6,4.2-6.4,6-9.6,2.1-7.1,4.6-11,3.5-10.3,3.9-15.6c.4-5.3,8.8-10.3,8.8-14.9s-3.2-7.1-5.3-10.3c-2.1-3.2.7-5-1.4-8.5s-3.9-6-1.1-9.9-.5-8.5-.5-8.5l-143.3,1.1-2.7,46.7s8.5,8.1,9.2,15.9,3.9,11.7,6.7,11.7,3.5,11.3,3.5,16.6-1.8,12.4,2.8,13.8c4.6,1.4,8.1,6.4,6,12.7-2.1,6.4-6.4,15.2-3.5,23.7,2.8,8.5,1.8,22.6-.4,24.4-1,.8-1.8.9-2.4.9,1.8.9,4.7,2.8,1.3,5.1-4.6,3.2-8.8,7.1-5.4,14.7.4-1.3,2,.5,7.8-1.5s7.8-4.2,11-3.8c3.2.4,10.2-.8,7.6-4.1-2.7-3.3-6-4.8-6.1-7.7,0-2.9-.5-7.6,2.8-7.6s5.2,4.9,5.2,8.4-.7,6.8-.7,6.8c0,0,7.8,3.6,8.4,3.6s1.3,1.7,1.5,3.6c0,1.8,2.9.7,6.1,2.7s5.3,3.2,9.4,3.2,8.1-3.5,14.5-.5c6.4,2.9,12.2,3.6,15.8,2.5,3.5-1,5.6-.4,6.1-.8,0-.2.2-.4.3-.8.5-1.9-1.9-5.2-5.2-5.2s-6.8-2.5-5.3-6c1.5-3.4,2.1-4.8,7.2-5,5-.3,6.1-1.6,9.5,2.1s6.9,6.1,6.4,2.4.4-8,4.9-4.8.9,13,.9,13c0,0-2.9,4.5,1.7,5.2s8.6-.3,9.2-4.8c.5-4.5,2.3-6,4.1-5.6,1.9.4,3.2,1.5,1.6,5.4-1.6,4-1.5,11.5,1.7,11.9,0,0-9.2,3.2-7.4,6.2,1.7,3.1,4.5,4.6,9.5,2.4,5-2.3,12.1-4.9,12.2-1.3s-3.3,6.5.4,7.8c3.7,1.3,9.2,0,12.7,3.2,3.6,3,10.1-2.1,10.5-6,.4-3.8-6.2-7.4-5.3-10.8.9-3.3,5.8,2.4,6.2,2.8.4.4,2,2.2,3.5.3,1.5-2,4.1-1.2,3.2.5s-2.7,4.2-1.9,6.4c.8,2.1,1.9,5,5.7,4,3.8-1.1,5-2.3,7-3.6,2-1.3,4.2-2.1.9-6.2-3.3-4.1-3.8-10.5-.9-11.5,2.9-1.1,5.4-.3,7.3,2s4,4.6,6.1,4.6,5.2,2.4,1.9,4.2c-3.3,1.9-2.1,3.7,1.9,4.2s6.5,4.4,2.9,8,1.9,4.5,3.2,2.8c1.3-1.7,3.5-2.8,3.5-2.8,0,0-.5,2.8,2.4,3.2,2.9.4,5.2-2.7,5.2-2.7,0,0,0,2.1,1.3,2.4,1.5.3,8.1-.8,7-5.4s-6.4-1.7-6.4-1.7c0,0-6.9-1.9-9.5-5-2.7-3.2-.5-4.8,2.9-2.2,3.4,2.5,8.2,3.2,10.1,3.2s5-.8,4.4-2.1c-.7-1.3-2.3-2.3-5.3-2.3s-8.8-4.9-11-5.8c-2.3-.9-7.6-4.2-8.5-7.7s-.7-4.8,1.5-4.3c2.1.5,5.8.9,4.5-.7s-3.2-3.2-4.4-3.2-3.6-1.2-2.8-2.4c.8-1.2,2.3-1.7,3.4-1.6,1.2,0,3.1,2.9,5.3,2.8,0,0,4.4,1.3,3.3-2.3-1.1-3.6-2.9-4.6-2-7.2.9-2.5,4.4-4.5,4.1-6.9s-1.3-5.8-4.2-5.4c-2.9.4-6.6,2.9-6.8,8.4,0,5.4-1.6,7.4-3.4,4.8-1.9-2.6-4.8,0-5.4,1.2-.7,1.1-5.7,2.1-6.9-1.3-1.2-3.5-1.7-6.4,2.1-6h.7l.9-1.5,2.1-1.2s12.1-2.1,10.7-6l-16-.9s-6.4,1.2-10.5,4.5-6.5,7.6-10.9,4.1-8.2-8.9-11.8-6.9c-3.6,2-10,3.2-9.7-2.4s2.9-7.3,7.8-4.3c4.9,3.1,11,3.3,9.4,0-1.6-3.5-3.7-7,1.9-6.9s14.9.5,14.9.5c0,0,5.2-1.6,7.7,1.3s11,9.4,17.8,7.6c-1.5-3.7-2-7.6-4.2-8.7v.2Z"/>
    <path id="SC" class="st0" d="M2067.5,911.2l-25.5-15.4-58.9,3.2-29.2,17-.5,5.3s-8,3.7-2.7,11.7,59.4,60,59.4,60c0,0,5.3,11.1,11.7,13.8,6.4,2.7,13.3,6.4,15.9,11.7,2.7,5.3,4.8,14.3,8.5,15.9,3,1.3,9,6.9,11.3,9.1.3,0,.6.4.9.9,1.3,2,1.3,7.2,3.9,9.4,2.6,2.2,6.2,4.5,10,4.3,3.7-.2,4-2.2,4-2.2,0,0,3,3.9,4.9,3.4s1.2-2.2,1.2-2.7-.9-3.2,4.7-3.4c0,0,5,0,4.8-2.4-.3-2.3-1.5-5.1-8.9-5.1s-6.5-4-6.5-4c0,0,1.7-3.9,5.5-3.2,3.8.7,8.2,3.7,8.2,3.7,0,0,.3-5.5,2.5-5.6,2.2,0,3.4,4.5,5.7,4.1s7.5-2.5,13.7-9.7c6.2-7.2,8.9-8.5,10.8-10.2,1.9-1.7,5.2-6.1,5-11.7-.2-5.6-.7-7,1.5-8.2,2.3-1.2,4.6.8,5,1.8s3.1,3.2,3.7.2c.7-3,.3-5.6,3.4-8.2,3.1-2.6,6-5.4,5.3-6.9s-.8-3.9.1-6.4c.9-2.5,2.7-6.3,2.7-6.3,0,0,1.7-1.7,2.9-3.3s2.4-5.9,5.9-9.5,12-11.8,12-11.8l-60-46.6-43,7.4h.1Z"/>
    <path id="MS" class="st0" d="M1722.1,943s-3.7-2.7-3.7-6.9l-86.5-2.7s-2.3-.5-1.9,3-2.8,5-4.2,6.7c-1.4,1.8-4.6,5.3-4.6,5.3,0,0,1.8.7.4,4.2s-5.3,9.2-5.3,11-8.8,14.5-12,18.4-13.4,17.3-13.1,27.9c.4,10.6,8.5,10.6,6,14.5s1.1,7.4,1.1,9.2-8.5,9.9-5.5,18c0,0,3.4,4.6.5,8.5-2.8,3.9-1.1,6.4,1.1,9.9,2.1,3.5-.7,5.3,1.4,8.5s5.3,5.7,5.3,10.3-8.5,9.6-8.8,14.9c-.4,5.3-1.4,11.7-3.9,15.6s-2.8,7.8-4.6,11c-1.8,3.2-2.1,4.6-6,9.6s-5,11-5,15.6-6.4,6.4-3.4,10.4c1.3,1.7,86.5-2.1,86.5-2.1,0,0,2.5,6.9.4,10.4s-2.1,8.5,1.1,11.3,3.5,5.3,3.5,8.1,2.8,3.2,5,4.2c2.1,1.1,2.7,5,4.2,8.7,0,0,3.9,1.2,7.6-2s7.7-7.4,11.8-6.5c4.1.9,5.6.8,9.8.8s8-4.2,11.3-4.2,7.3,3.5,11.3,3.3l-5.8-83.6,6.4-171.4h-.4Z"/>
    <path id="CA" class="st0" d="M494.1,964.7c4.4,3.9,6.6-3.3,4.9-5.5s-3.3-8.2-9.3-16.5c-6.1-8.2,8.2-23.1,8.2-23.1l1.7-8.2c4.4,0,9.3-3.8,9.3-9.3s4.4-11.5,11.5-14.3c7.1-2.7,4.4-11.5,1.1-13.2-3.3-1.6-3.3-5.5-6.1-11.5-2.7-6.1-1.7-6.6-1.7-12.6s-5.2-9-5.2-9c0,0-179.7-270.6-177.9-272.4,1.8-1.8,0-3.9,1.1-6.4s9.5-15.9,9.5-15.9c-5.7,1.1-4.2-8.5-4.2-8.5l39.4-133.4-170.2-51.8c-.4,1.5-1.9,2.4-3.8,1.5s-5.1.3-5.2,2.2c0,1.8,2.2,5.6,4,7.7,1.8,2.2,1.6,3.7,1.2,6.9-.4,3.2-1.8,10.9-2.2,12.4s-3.8,11.2-7.7,11.3h-1.2s-1.4,13.3-1.4,13.7,0,3.6-3.3,6.1c-3.3,2.4-7.9,6.6-11.6,11.7-3.7,5.1-6.1,11.3-6.2,12.1,0,.8-.7,5.4,1.1,8.7,1.8,3.4,5.4,9,5.4,9v4.5c.1,0,2,4,2,4,0,0,1.6,6,1.5,11.2,0,5.3-.1,9-2.3,13.1-2.1,4.1-5.3,7.6-5.7,9.8s1.5,4.9,1.5,7.4-1.1,4-3.3,4.9c-2.2.8-2.8,1.6-2.8,3.8s-.4,2.8-2.2,3.6-6,2.7-6.2,4.5,1.6,2.4,3.3,3.2,3.7,2.3,4.8,2,2.9-2.3,4.5-2.1c1.6.3,4.6,4.9,4.8,7.6.2,2.7-.5,5,1.4,7.2,1.9,2.3,5.4,5.2,6.2,8.1.8,2.9,1.4,6.4,3.2,6.8,1.8.4,2.8.2,2.9,1.2.1,1,2.4,11.1,3.8,12.3,0,0-7.3-2.8-10.3,1.6-3,4.5-1.6,12.2.5,14.6,2.1,2.3,4.1,2.5,4.7.8.6-1.6,1.8-3.9,3.4-3.8,1.6,0,3.3,1.2,3,5.3s2.9,7.8,6.6,7.5c3.7-.3,6.4-3.4,7.3-7.3.9-3.9,4.2-9.3,9.2-6.5,5.1,2.7,11.4,3.6,16.4,2.3s17.9-4.2,16.5,1.2c-1.4,5.5-5,9-9.3,9s-7.4-6.1-13.7-6.1-12.7-2.8-14.5-.3,0,5.1,0,5.1c0,0,2.5.6,2.2,3.7-.3,3.1-.6,9.2,0,11.1.5,2,1.1,7.7,2.2,10.7,1.1,3,4.2,10,3.3,11.7-1,1.7-4.6,2.8-4.8,0s-2-4.1-3-5.2c-1-1.1-1.3-2.5-1.6-6.3s.3-14.2-1.6-17.6c0,0-5.6.2-6.7,2.5-1.1,2.3-4.8.9-5.1,4.7-.4,3.8-.8,9-.8,12.6s-1.6,8.6-4.6,12.5c0,0,3.1,5,2.7,10.4-.3,5.5-2.3,9.8-3.1,11.8-.8,2.1-.2,4.9,2,5.1,2.2.2,8.9,2.8,10.1,12.2,0,0-3.9,2.2-3.5,6.1.4,3.9,4,7.3,6.5,11.2,2.4,3.9,6.3,12.7,7.6,16.3,1.2,3.6,3.9,6.1,4.4,9.5.4,3.5-.4,11.9,3.7,12.1,4.1.2,4.8,1.3,4.6,4.3s-1.7,4.8,1.2,7.5,7,5.6,7.4,7.5,1.5,2.3-.6,6.9c-2.1,4.6-1.9,6.7.9,7.8,2.7,1.1,4.8,7.4,2.7,12.4s-4.2,6.5-2.3,14.2c0,0-5,3.7-5,6.6s1.9,5.6,3.4,8.6,5,5,8.6,5.3,10.7,4,15.7,6.9c5,2.9,4.3,2.7,7.3,2.3s7.1-1,10,1.8c2.9,2.7,6.1,5.8,6.4,5.8s1.2,1.3,3.4,1.3,6.3,5.3,8.9,9c2.7,3.7,7.2,6.5,7.2,6.5,0,0,.8,6.7,6,5.7,5.2-1.1,6-1.3,9.6,1.8s10.9,7.2,10.4,10.5c-.4,3.4-3.3,5.7-4.8,5.9-1.5.3-1.1,2.4-1.1,3.9s-1.8,7.6,1.2,7.7c2.9,0,3.6-.3,6.5-.6,2.9-.4,6.2-1.7,9,.3s7.3,1.8,8.5,1.7c1.2,0,6.5,1.4,3.9,6.1-2.7,4.7-2.5,10,1.2,14.1,3.6,4.1,11.7,12,11.7,12,0,0,7.1,7.4,4.3,13.3-2.7,5.9-9.5,13.2-9.5,13.2,0,0-2.4,4.2-.2,6,2.2,1.8,4.9-.4,5-1.4.2-1,3-3.4,3-3.4,0,0,3,1.1,2.5,4.6s-4.6,7-4.6,7l1.9,3.5,26.4,1.9,86.1,6.8s4.3-.2,5.2,2.1c8.2,6.9,9.4-.9,9.4-.9h.3Z"/>
    <path id="AZ" class="st0" d="M563.1,739.8l-10.3,47s-6.7-4.2-8.8-9.2-1.4-3.5-11.7-3.9c-10.3-.3-14.9,10.6-14.9,15.9s-2.5,8.1-3.9,11.7c-1.4,3.5-2.8,8.5-1.1,13.1,1.8,4.6,2.5,12.7,2.5,20.9s-6.4,6-6.4,6c0,0,5.2,3,5.2,9s-1.1,6.6,1.7,12.6,2.8,9.9,6.1,11.5c3.3,1.7,6,10.4-1.1,13.2s-11.5,8.8-11.5,14.3-4.9,9.3-9.3,9.3l-1.7,8.2s-14.3,14.8-8.2,23.1c6,8.3,7.7,14.3,9.3,16.5s-.5,9.3-4.9,5.5c0,0-1.2,7.8-9.4.9,0,0-8.9,6.2-10.1,13.1l170.1,96.2,98.6,17,42.7-311.6-222.9-40.5v.2Z"/>
    <path id="TX" class="st0" d="M1444.3,1026l-4.9-2.5-7.4-3.6c0,1.9-.7,2.9-1.8,3.2-1.7,1-4.9.5-11.2-4.8-3.4-2.4-6.7-5.1-8.7-7-4.6-3.3-7.1-4.1-10-4.1s-1.6,0-3.1.2h-.5c-4.4.5-9,.7-11.8.8-6.2.4-2.8,1.1-9.1,1.1h-13.1c-2.6,0-5.7,1.7-8.5,3.3-2.1,1.3-4.1,2.6-5.3,2.6s0,0,0,0c-.3,0-.7,0-1,0-3.5,0-3.9-2.5-4.2-5-.7-2-2.7-4.6-5.3-5.3-.6,0-1.5,0-2.6-.2-2.8,0-5.5-.7-8-2.4-2.5-1.6-4.2-2.8-5.7-2.4-1.8,1.1-3.1,4.3-3.1,7.5v.8c-.2,1.6-1,2.4-1.9,2.5-1,.6-2.2.7-3-.7-1.6-2.9-1.9-5.6-4.5-4.8-1.9.6-2,2.4-3.4,3.4-1.7,2-6.1.6-10.8-1.6-.3,0-.5-.2-.8-.3-.6,0-1.1-.2-1.7-.2-.9,0-1.8.2-2.8.6-2.6,1.2-5.1,3.4-9.2,3.4-4.2.2-6.6-3.8-8.9-7.5-.5-.8-1-2-1.6-3.5-1.3-2.6-2.5-5.3-3.5-7.3-2-3-4.7-4.6-8.4-1.4-1.3,1.2-2.1,2.3-2.7,3.4,0,2,.7,5.6-.4,5.6.4,1.3.8,1.5-.7-.3-.4-.3-1-.9-1.6-1.8-4.7-4.9-10.1-6.7-14.4-7.2-1.7-.2-3-.2-3.7-.2h-.4s-.9-.7-2.3-1.6c-1.4-.8-3.5-1.8-6.9-3-.3,0-.5-.2-.8-.3-.5,0-1-.2-1.5-.2-5.3-.3-8.8-8-9.8-9.8-.7-1.2-3-4.4-6.2-6.7-1.9-1-4-1.7-6.2-2.3h-.3c-6.4,0-16.7-1.6-19.6-2.7-.9-.3-1.9-.7-2.8-.9-2-.5-3.2-1-3.2-1l3.2-107.7-132.6-13.2-20.7,249.3-161.3-15.4-1.1,10.1-1.7-.3c1,.7,3.9,2.8,4,4,0,1.5.5,4.9.5,4.9l6.2,9.8s3.7,3.2,6.2,3.6,11.3,9,13.4,14.6c2.1,5.6,3.6,8.2,6.4,10.5,2.8,2.3,9.6,9.8,10.1,11.3s2.3,1.5,2.9,1.5,2.5.9,3,2.8c.5,1.8,2.1,4.2,5.7,6.5,3.6,2.3,9.4,7.4,10.2,11.7.8,4.2,3.2,17.6,4.5,22.6,1.3,4.9,4.6,14.8,5.2,18.8.5,4,2.9,8.8,4,9.4,1.1.7,1.6,4.6,6.2,9.6,4.6,4.9,12.1,10.2,15.7,10.2l7.2,6.1s4.9.8,6.5.7c0,0,3.6,3.3,6.9,3.7,3.3.4,4.1,4.1,6.1,6.1s8.6,9.8,13.5,8.5,6.8-9.1,9.7-11.7c2.9-2.5,6.4-10.3,6.5-14.6,0-4.2,3.5-9.3,7.3-11.3s6.4-7.7,6.4-7.7c0,0,5.3-6,10.7-2.4,5.4,3.6,9.8,2.4,9.8,2.4,0,0,1.1,1.9,6.1,2.7,5,.8,9.4,2.1,9.9,3.6,0,0,4-2.5,6.2.3,2.3,2.8,5.2,1.3,5.2.8s5.7.7,9.8,4.2c4.1,3.6,8.5,3.7,11.8,4.9,3.3,1.2,5.3,1.9,6.2,6.2.9,4.4,10.7,11.9,13.1,13.4s3.3,7.8-.5,7.3c0,0,16.8,10.1,13.4,17.9,0,0-.8,1.2.8,3.3,1.6,2.1,9.3,15,11,19s3.4,5.7,5,6.2c0,0,.3,2.8.9,4.9.7,2.1,9.7,19.2,9.7,19.2,0,0,2.8,7.2,7.2,9.8,4.4,2.7,12.2,5.8,12.2,12.7s0,13.1,2.9,17.3c2.9,4.1,2.6,11.1,2,12.9-.7,1.7.3,3.3,1.7,4.8,1.5,1.5,4.4,8.1,7.6,8.8,3.2.7,7.8,5.4,7.8,10.9s6.4,10.9,10.5,12.3c4.1,1.5,6,4.2,6.2,7.2.3,2.9,3.3,4.2,3.8,2.8.5-1.5,5.7-.7,7.7,2.1,2,2.8,5.2,2.8,7.4,2.8s25.3-.5,25.3-.5c0,0,8.6-.5,11,4.5s8.2,12.6,14.3,9.8c6.1-2.8,1.7-10.6.9-11-.8-.4,4.1-7.3,4.1-7.3,0,0,3.1-2.1,1.7-7.8-1.3-5.7-3.1-7.4-2.3-12.5.8-5-4.6-16.2-3.7-27.2s2.7-17,5.4-23.2c2.8-6.2-1.5-7.3-4.8-1.2-3.3,6.1-6.9,14.9-6.1,26.3s3.3,16.7,3.7,23.5c.4,6.8,1.7,12.7,3.3,14.3s.4,6.1-.9,4.5-4.2-7.6-5.7-9.3c-1.5-1.7-1.5-5-1.3-8.1,0-3,0-10.3-2.5-13.5s-5-7.4-4.9-13.3c0-5.8-1.2-7.8-5.2-9.5s-5.8-5.7-5.6-6.8c.3-1.1,1.5-.9,2.4.3.9,1.2,1.5.9,2.8.9s6.5-9.5,6.5-9.5l1.1,15.7s3.7,3.2,4.1-.8,3.6-13.4,6.1-18.7c2.5-5.3,1.2-13.9-5-15s-11.5-4.9-11.1-4.9,8.1,1.6,11.8,0c3.7-1.7,8.4-.9,9,2.1.7,3.1,3.2,2.4,4.2,0,1.1-2.4,5.2-3.2,8.5-20,0,0,0-1.3,3.2-1.3s5,.9,5.8-2.7,2.7-13,8.5-3.8l.9,1.5s-10.6,5.2-16.3,15.5c0,0-3.8,6.1-4.5,10-.7,3.8,3.3,3.2,4.9.5s.9-6.9,4.9-10.5,14.9-10.1,16-12.6c1.2-2.5,2.9-4.4,2.9-4.4,0,0,.5-1.2-2.7-5.4-3.2-4.2-7.3-11.5-5.7-13.3,1.6-1.7,6.8,2.4,8.4,4.5s-1.9-6.9,2.1-6,2.8,3.2,2.8,3.2c0,0,5.8-6.6,7.6-4.1,1.7,2.5-4.4,8.2-4.6,9.7-.3,1.5-7,7-6.9,9.2,0,2.1.4,2.5,3.5,1.3s23.6-13.1,23.6-13.1c0,0,1.1-1.6-2-.3-3,1.3-7.2,3.8-7.2,3.8,0,0-7.4,0-4.6-2.1,2.8-2.3,12.6-6.8,13.5-4.8s.3,3.4,1.2,3.4,7.4-4.4,9.3-7.2c1.9-2.8,6.2-2.6,8-2.2,1.7.4,3.7.3,6.6-1.5,2.9-1.7,4.1-2.5,6.2-2.5s7.8-4.2,8-8.1c0,0,4.4-1.2,5.6-3.5,0,0,3.5,6.6,7.2,1.9,3.7-4.8,8.2-8.4,5.4-9.6-2.8-1.2-8.4,1.1-9.1,2.5-.8,1.5-1.5-1.3-1.5-5.3s.7-11.3-3.6-14.9c-4.2-3.6,0-6.1,3.3-6.2,3.2,0,9.7-5.2,9.7-5.2,0,0,6.6-3.6,5,1.3s-2.9,9.3-1.7,11.1c1.2,1.8,4.9,4,7.8,1.7,0,0-5.8,3.6-9.5,4.9s-3.2,5.2,1.9,4.2c5-.9,13.8-5.4,13.8-5.4,0,0,4.2-6.9,7.8-8.4,3.6-1.5,10.9-.3,13.4-.3s7.2-1.6,7.6-2.9c-3.3-7.6.8-11.5,5.4-14.7,3.4-2.3.5-4.3-1.3-5.1-.7,0-1.2-.5-1.2-.5,0,0,.5.2,1.2.5.6,0,1.4,0,2.4-.9,2.1-1.8,3.2-15.9.4-24.4-2.8-8.5,1.4-17.3,3.5-23.7,2.1-6.4-1.4-11.3-6-12.7-4.6-1.4-2.8-8.5-2.8-13.8s-.7-16.6-3.5-16.6-6-3.9-6.7-11.7c-.7-7.8-9.2-15.9-9.2-15.9l2.7-46.7-1-25-4.1-1.9-.3.2Z"/>
    <path id="NM" class="st0" d="M863.1,1075.2l161.3,15.4,22.8-275.4-5.7-.8c-101.8-11.4-241.5-32.7-254.4-34.6l-43.8,312.1,32.5,5.3,5.3-23.7,78.7,11.2s.2,0,.4.3l1.7.3,1.1-10.1h0Z"/>
    <path id="OK" class="st0" d="M1045.1,841.2l132.6,13.2-3.2,107.7s1.4.4,3.2,1c2.5.7,6.2,1.5,10,1.7,3.3.2,8.1.7,12.7,1.9,2.2,0,4.3,1,6.2,2.3,2.2,1.1,4,2.5,5.2,4.3,4.1,6.2,5.2,9.7,12.3,12.4,2.8.5,5.7,2.1,7.6,3.3,1.9,1,2.3,1.6,2.3,1.6h.4c1.1,0,2.3,0,3.7.2,4.2.4,10.6,1.8,14,6.6.2.2.3.4.4.6,0,0,.2.2.3.3.6.6,1,1.1,1.3,1.5.3.2.5.3.7.3-.4-1.2-.7-3.2.4-5.6v-1c.4-1.4,7.4-7.8,10.6-1.8,0,.3.3.6.4.8,1.4,2.1,2.6,5,3.5,7.3,2.8,5.5,6.2,10.9,10.5,10.9,3.2-.2,6.3-2.4,9.2-3.4,1.4-.6,2.8-.9,4.5-.4,3.2.6,6.3,2.5,9.5,2.5s1.7-.2,2.2-.6c.2-.2.4-.5.5-.9,1.1-3.2,5.7-4.2,6.7-.3.6,2.2,2.3,3.5,3.7,3.3.9-.5,1.7-1.5,1.9-2.5v-.8c-.3-2.1.9-6.1,2.5-7.2.2,0,.5-.2.7-.3,1.1-.6,2.3-.5,3.6.8,2.5,2.5,7,3.6,10.2,4h1.2c.4,0,.9,0,1.4.2h.3c1.8,0,4.6,2.8,5,5.3.8,2.3,2.6,4.8,5.2,4.8,1.5-.4,3.4-1.4,5.4-2.6,2.4-1.5,4.9-3.1,6.9-3.3,3.7-.3,14.7,0,14.7,0l6.5-1h2.7c3.9-.2,9-.6,12.2-.8,1.1,0,2.2-.2,3.1-.2h.3s3.9-1.4,9.2,3.5c.2.2.4.3.6.5,2.3,1.6,5,3.8,8.6,6.9h0c4.3,3,8.8,5.4,11.2,4.8,1.2-.7,1.6-2.3,1.7-3.2h0l-7.3-159.5-.5-29.7-331.9-13.3-.2,2.2c-10-.8-21-1.9-32.7-3.1l-11.9-1.1-2.1,26.1v-.2Z"/>
    <path id="AR" class="st0" d="M1651.7,890.2c0-1.6-.5-3.6-1.3-5.6-.9-1.8-1.7-3.8-1.2-7.1.2-2.1.9-3.6.9-3.6,0,0-14.9,1.8-19.1,1.8-4.8.5-5.1-6.8-2.8-9.5,1.4-2.8,1.1-4.2-.7-6.4-1.9-1.1-1.9-5.3-1.9-5.3l-201.1,5.8c3.6,35.6,5.4,73.5,6.4,103.3,1.1,23.4,1.7,44.6,1.1,55.3v.9l7.4,3.6-6.8-3.5,6.8,3.5,9,4.4v-1l.5,1.2.5,24.8,143.3-1.1c-3.9-6.4,5.2-17.2,5.5-18v-.2c-.4-1-3.8-3.2-1.8-7.1,0,0,0-.2,0-.3,0-.3.2-.5.3-.8,1-3.6-2.3-5.8-2.3-5.8-.3-.5-.6-1-.8-1.5-1.3-1.7-2.4-4.2-2.5-7.9,0-1.6.2-3.3.5-5,.4-2.3,1.2-4.4,2.2-6.4,2.5-5.7,6.2-11.1,8.7-14.3,3.1-4.9,6.3-9.6,9.2-12.8.2-.3.4-.5.6-.7.5-.8,1-1.6,1.5-2.3.4-1.2.4-2.5,3.7-8,1-1.8,2.3-4.1,3.3-6,1.9-4.6-.4-4.8.4-5.9,0-.2.5-.5.9-1,1-1.2,2.8-3.2,3.7-4.3,1.2-1.5,3.8-2.8,4.2-5.5h0v-1.4c0-1.6.3-2.3.8-2.6.4-.8.8-1.2.8-1.2,0,0,1.8-3.6,2.7-8.1,0-1.9.4-3.9,1-5.7.7-3.2,1.8-6.1,4.8-8,4.2-2.7,5.8-9.2,5.8-9.2l2.1-2.1-1.4-5.7s4.2-.8,5.2-3.5l-.2-.2Z"/>
    <path id="IL" class="st0" d="M1672.1,827.3c.2-.2.4-.4.6-.6.7-1.4.2-4.4,1.9-8.6.6-1.5,1.5-2.3,2.7-2.9,1.2-1,3-1.5,5.8-.8,7.2,1.7,8.8,5.4,12.8,3,2-1.8,3.3-5.5,4.7-8.1,2.3-4.1,5-3.8,8-3.8.9,0,1.7-.5,2.4-1,1.9-1.8,3.3-6,3-13,0,0-1.3-8.6,2.8-10.4.3,0,.4-.2.4-.2,0,0-.3-4.6-.3-8.5s.4-4,.9-5.9c0-1,.3-2,.5-2.9,0-.4.2-.7.3-1.1v-.8c0-1,.6-1.9,1.3-3.1.5-1.4,1-2.7,1.5-4.6v-1.1c0-5,3.9-8.1,4.6-9.9.5-1.3,2.9-5.2,5.2-10.8.2-.5.3-.9.5-1.5,2.5-7.3,2.7-13.5,2-18.3-1.2-5.3-3.1-9.4-3.1-9.4v-.6c0,0-.2-.2-.2-.2l-9.7-144.5s-1.7-.6-3.2-4.3-7.7-14.9-11.8-22.3c-4.1-7.3-3.5-10.2-3.4-10.3s0,0,0,0h-.5c0,0-107,3.5-116.7,3.9l14.6,10.5s1.8,5.6,3.4,9.4l3.6,6.1c.3.3.7.7,1.1.9l3.2,1s3.9,4.2,2.8,10.6c0,.7-.4,1.3-.7,2v.2c-.9,4.2-5.7,8-10.4,11-2.1,1.6-3.9,2.8-4.6,3.2-2.3,1.2-6.4,2.7-6.4,4.2s-.3,4.4-5.9,6c-.5.3-1,.6-1.6.8-.2,0-.4,0-.6.2-1.1.8-2,1.8-2.7,2.9-1.2,2.5-1.8,6.3-2.1,11,0,3.3,0,7.4-.3,9.7-.4,2.2-1.8,4.2-3.7,6.3-1.4,1.9-3.2,3.6-5.1,5.7-.2.2-.4.5-.6.7-4.2,5.3-6,22.3-6,22.3h-1.2s3.2,10.6,3.9,15.9c.7,5.3-4.9,13.4-.7,17,4.2,3.5,7.4,7.4,10.3,8.5,2.8,1.1,10.6,4.6,10.6,4.6,0,0,0,6.4,4.6,8.5s6.4,6.7,6.7,11c.4,4.2,5,7.1,9.9,6.4,5-.7,11.7,1.1,14.2,12.4,2.5,11.3-4.6,16.6-4.6,16.6,0,0-5.3,1.1.4,7.1,5.7,6,18.4,20.2,18.4,20.2,0,0,3.5,3.9,6.7,3.9s6.7,5,8.5,10.3.4,14.9,2.8,20.2c2.5,5.3,13.1,13.4,16.6,15.6,1,.2,1.7,0,2.1-.2h-.2Z"/>
    <path id="VA" class="st0" d="M2264.5,761.4s1.1,3.6-1,5-3.9.2-5.4-1.2-5.1-2.2-7.7.3c-2.6,2.5-8.2,4.7-13.5.6-5.2-4.1-13.4-17.6-39.8-14.9,0,0,13.1-8.9,26.7-3.1,13.7,5.8,14.4,14.5,22.2,13.3,0,0,2.3-9.7-10.8-16.4,0,0,9.2-5.4-5-9s-13.4-4.9-13.4-7.8c0,0,9-3.1,14.8-.6,0,0,4,1.5,6,0,0,0-1.1-4.4-7.2-4.4,0,0,5.4-3.4-.3-15-7.6-7.9-17.5-5.6-23.9-9.8s-7.1-4.6-11.7-4.2c-4.6.4-7.1.4-10.6-7.1-3.5-7.4,5-10.6,5.7-15.9.7-5.3-8.1-13.1-11.7-13.1s-11-2.1-14.5-9.2c-3.5-7.1-9.2-5.7-11.7-5.7,0,0-5.7,4.6-8.1,9.6-2.5,5-3.5,5.7-9.5,6.4s-9.2,5-9.5,8.1c-.4,3.2-2.8,12-7.4,13.4-4.6,1.4-9.9,8.1-9.9,13.8s-11.3,11.7-17.7,8.1c-6.4-3.5-13.8-4.6-11,4.2s-2.1,14.5-9.9,14.5-16.6,9.2-17.7,18.7c-1.1,9.6-1.4,14.9-9.5,14.9s-11.3.7-11.3.7c0,0-4.2,2.8-3.9,6,0,0-8.5,1.8-12.4-5.3,0,0-8.5,7.8-11,15.9-2.5,8.1-11.7-.7-14.5-3.9s-6.7-11.3-12.4-11.3v.8c0,3.9-.5,13-5,16.3-5.8,4.3-18.2,11-20.5,17.8-.3.8-.5,1.6-.8,2.3,0,.2,0,.5-.2.7-.7,4.5-2.6,5.9-4.4,6.2-1.1.5-2.5.3-4.1-.9,0,0,.2,7.2-3.9,8.8-3,1.5-14.6,9.5-19,15.8-.8,1.2-1.3,2.4-1.4,3.4l94.7-8.9,2.1-.3h0l254.9-39.7.9-12.2s-1.9-4.1-4.7-5.8h-.1Z"/>
    <path id="KY" class="st0" d="M1916.5,827.9c.3-.9.8-1.9,1.5-3,4.1-6.3,15.6-14.4,19-15.8,3.5-1.8,3.9-8.8,3.9-8.8,0,0,2,1.2,4.1.9,1.9-.8,3.3-3.4,4.6-6.9,1.9-9.2,15.2-16.4,20.4-19.5,4.6-2.7,5.7-13.8,6-16.9v-1.3c-.2-1.2-1-4.4-4.2-4.4s-3.2-.7-3.5-4.2c-.4-3.5-3.5-2.8-3.5-2.8,0,0-2.8-7.4-2.8-13.8s2.7-10.5,3.1-11.2c-3.2.4-9,.2-14.4-4-8.1-6.4-12.7-12.4-16.3-11-3.5,1.4-3.9,4.2-7.8,4.2s-7.4-2.1-12.4-2.1-7.8,3.9-11.3.7-6.4-6.4-12.7-6.4-20.9-1.1-23.7-3.9c-2.8-2.8-9.3-7.9-15.6-4.1.2.8.6,2.5.8,4.5h0v2c0,2.3-.2,4.7-1.4,6.2-3,4-6.5,7.6-11.5,9s-5.4,2.1-7.7,3.8c-2.9,2.6-4.7,6.3-4,10.5.3,1.8.2,3.6,0,5.3,0,1.8-.5,3.5-1.4,4.8-.4.6-1,1.5-1.8,2.5-.6,1-1.3,2-2,3-2.6,3.8-9.9,13.7-15.6,15.6-.6.3-1.2.4-2,.3-.5,0-1,0-1.5-.3-3.5-1.8-6.2-6-8.5-9-1.7-1.6-3.2-2.8-4.3-3-.7.2-1.2.9-1.6,1.9-.5,5-1.8,16.5-5.3,17.4h-.5c-.7.6-1.5,1-2.4,1-3.7,0-5.5-2.7-7.8-3.1-2.8,1-3.5,5.1-7.1,5.7h-.8c-.6.2-1.3.3-2,.3-5.7,0-12.9-3.7-16.1-4.2-4.9,1.1-8.4,6.9-11.4,5.9-1,0-1.9-.8-2.8-1.5-1.4-.8-2.2-1.2-3.3-.2-1.9,3.1-1.8,8.5-8.7,8.7-.9,0-1.9,0-3-.2,0,0-.3,0-.4.2-.9.5-3.2,2.7-2.8,10.4,0,0,1,9.7-3,13-.7.7-1.5,1-2.3,1h-.7c-7.4,0-7.4,8.8-11.7,11.7,0,0-.2,0-.3.2-1.2,1.1-2.6,1.5-4.4.7-3.7-1.8-10.2-4.6-14.1-2.9-1.9,1.7-2.2,4.9-2.7,7.3-.3,1.8-1.1,3.2-1.9,4.1-.2.2-.4.4-.6.6-.6.6-1.1.9-1.1.9,0,0,.5-.3,1.1-.9-.5.3-1.1.4-2.1.2,3.5,2.1,6.4,17.7-5,19.8l-6-.4s-4.6-1-4.6,4.6.2,4.3.3,4.1v-.2l63.7-5.3-5.8-6.9,202.7-14.9h1.4c0-1.2.6-2.3,1.4-3.5-.7,1-1.3,2.1-1.5,3l-.2.6Z"/>
    <path id="IA" class="st0" d="M1562.9,649.6s-.4-15.1,5.2-21.4c.5-.6,1-1.1,1.4-1.6,1.8-2.2,3.6-4,5.1-5.7,2.2-2.9,3.7-6.2,3.8-11.8,0-1.5,0-2.8.2-4.2,0-2.9-.2-5.2-.2-5.2,0,0,.5-3.1,2.3-5.8.7-1.4,1.6-2.4,2.7-2.9.6-.4,1.3-.8,2.1-1h0c3.1-2,4.8-6.4,8.2-8.5,1.7-1,5.2-2.7,8.7-4.9,3.8-2.9,8.6-7.3,10.4-11.2,1.5-7.3-.9-11.5-3.8-12.8-.6-.3-1.2-.6-1.6-.9l-.7-.2-.4-.7c-.9-.9-1.4-2-2.3-3.5-.4-.6-.8-1.6-1.3-2.7l-1.5-2.5s-1.9-5.1-1.9-6.9c0,0-13.3-6.9-15.3-10.5-2.3,0-6.2-3.5-10-8-1.8-1.7-3.4-3.7-4.2-5.2,0-.2-.3-.5-.4-.7-1-1.3-1.9-2.6-2.8-3.9-5.3-7.6-.8-17.4,1.3-21.9,0-.3,0-.7,0-.9,0-2.3-6.4-11.7-6.4-11.7l-211.2-1.1-8.5.3c2.1,1.2,3.7,2.8,4.9,4.6,3.4,4.1,6.4,11.4,4.2,24.1-.2,1-.3,1.9-.5,2.8,0,.7-.2,1.3-.2,1.7-.5,4.5-1.6,9.8-.3,13.3,1.3,3.4.8,8,.8,8,3.9,3.1,1.6,10.5,1.6,10.5,4.1,3.9,7.4,10.1,7.2,13.4,0,1.1,0,2.1.2,2.8.3,2.1,1,3.7,1,3.7,3.1.3,5.1,6.5,5.1,11.2v6.1c.4,2.4.9,4.9,1.5,7.1.7,1.7,1.7,3.3,3.2,4.8,5.3,5.1,3.9,19.8,3.9,31.5s0,.7,0,1c.3,2.2.7,4,1.4,5.6,1.3,3.1,3.4,5.7,5.5,7.7,1.3,1.1,2.6,2,3.8,2.9.4.3.8.6,1.1.9l127.7-1.9,18.9-.3s10.3-1.1,12,.2c1.8,1.2,5.8,7.1,6.4,7.1s3.2-2,4.7,1.3c.6.6.8,1.6,1.2,2.9,0,.3.2.6.3.8,1.9,3.2,5.2,4.3,5.2,4.3h.2Z"/>
    <path id="SD" class="st0" d="M1351.2,526c-6.1-4.9-3.8-3.6-.3-22.9.7-5.5,2.1-18.6-3.8-26.9-3.4-4.1-7.4-5.1-7.4-5.1l11-.4,1.3-102.6s-4.5-5.6-3.7-12.7c.8-7.2,4-19.1,1.1-23.6,0,0-198.2-3.2-290.7-16.9-3.6,28.7-6.2,50.1-6.4,51.8,0,1.9-.6,2.8-1.2,3.3l-12.7,110.2,173.1,12.7s6.5,4.6,10.5,4.6,5.7,1.5,9.4,4c3.7,2.5,11.5,4.5,16.3,4.5s9.3,3.8,13.1,3.8,11.3,3.8,15,6.8c3.7,2.9,10.9,1.7,20.3-3.2,9.4-4.9,14.1-.5,18.2,0s11.7.9,11.7.9c0,0,24.7,11.5,25.9,12.6,1.2,1.1.9,9.5.9,9.5,0,0,2.3-7.3-1.6-10.5h0Z"/>
    <path id="IN" class="st0" d="M1730.4,702.4c.5.9,2.4,4.4,3.2,10,.8,3.9,1.2,8.5,0,12.5-.8,2.7-1.7,5.1-2.6,7.2-5.6,15.5-8.3,12.6-9.3,18.8-.2,1.2-.4,2.1-.6,3-.2,2-.8,3.5-1.5,4.6-.4,1.1-.9,2.3-1.3,3.9,0,1-.5,2.4-.8,3.9-.8,5.9-.5,14.4-.5,14.4,1.1.2,2.1.2,3,.2,5-.8,7.3-7.4,8.7-8.7,1-1.7,2.1-.8,3.3.2.7.4,1.4.9,2.4,1.4,0,0,.3,0,.4,0,.4,0,.9-.2,1.3-.6,2.8-2.8,6.7-5.3,9.5-5.3s.4,0,.6,0h0c4.9-1,13.7,3.8,18,3.9,4-1.1,4.3-5.5,6.8-5.8h1c.2,0,.3,0,.5-.2,3.1-.6,6.4,2.8,9.8,2.3,2.3-2.2,3.1-7.2,4-8.9.7-1.5.8-6,1.8-8.6v-.2c0-1.4.7-1.8,1.6-1.7h.5c1.2,0,2.4,1.3,3.8,3.1,1.8,1.8,3.9,4,5.8,6.2,1.8,2,3.1,2.9,4.3,3.1.6,0,1.3,0,2-.3,1.3-.6,2.4-2,4.1-3.2,3.1-2.3,9.9-10.6,13.5-15.4,1.4-2.3,2.6-4.7,3.2-7.3.2-3-.2-6.5,0-9.4,0-2.3,1.8-4.6,4.2-6.4,1.2-1.1,2.6-2,4.2-2.6,5.3-2.1,10.6-5,14.5-10.3,1.4-2,1.9-4.2,1.9-6.3v-2h0c-.3-2.5-1.1-4.3-1.1-4.3l-15.9-142.2-1.1-3.2-88.4,5.2c-.9,1.1-2.6,3.1-5,4.8-.7.6-1.5,1-2.4,1.5h-.2c0,0-.3,0-.4.2-2.4,1.1-5.1,1.8-8.1,1.3-2.3-.2-4.6-.9-6.8-2.8-.5-.4-1.1-.7-1.6-1.2l9.9,144.8-.2.3Z"/>
    <path id="DE" class="st0" d="M2292.2,668.9c-1.7,1.9-4.8,1.3-5.3-.3-.5-1.5.9-2.8,2.3-2.8s3-2.5.9-4.2.2-2.3,1.4-2.3,5-3.6-.7-4.7c-5.8-1.1-9.8-3.4-11-5.9-1.3-2.5-2.2-5.4-4.5-6.7s-3-4.6-3.2-7-2.1-8.2-5.8-10.2c-3.7-2.1-7.5-5.8-7.5-6.8s2.3-6.6-3.3-7.6c0,0,.2-1.3.9-2.1-.4-.4-1.7-1.8-5.7-5.8-4.4-4.5-2.6-6.1-1.2-9.6l-6.4,10.2h.8c0,0,4.8-8.5,4.8-8.5l-4.8,8.4h.6l22.3,76.7,29.9-4.7c-.1-.5,1.1-1.5,1.1-3.9s-3.8-4-5.4-2.1h-.2Z"/>
    <path id="PA" class="st0" d="M2249.9,591.6c.5-1.4,1.5-2.6,2.8-3.5,1.2-1.2,3.5-2.9,6.8-2.9s0,0,0,0c1.1-.3,2.1-.6,3.1-.9,2.6-1.6,4.2-5.1,4.1-9.2-.1-1.7-.5-3.5-1.1-5.3,0,0,0-.2-.1-.3-.1-.3-.3-.7-.5-1-1.9-3.9-5.4-6.7-9.8-8.8-3.3-1.5-5.3-5.1-6.5-9.3-4.4-11-4.1-27,1.5-31.1,1.1-1.3,2.4-2.4,3.4-3.6,1.6-2.6,1.7-5.3,1.5-7.3-.2-.6-.4-1.2-.7-1.8.3.6.5,1.2.7,1.8-.1-.9-.3-1.7-.5-2.3-.9-.4-1.5-.7-1.6-.9-1.8-2.1-7.8-1.8-11.7-5.7-3.9-3.9-7.4-12.7-14.9-19.1-7.4-6.4-15.9-3.5-15.9-3.5l-169.8,33.6-2.3-11.7s-5.2,3.6-7.5,6-3.8,4.8-6.7,5.4c-2.8.6-7.9,5.6-9.1,6.1-1.3.5-4.1.7-4.1.7l17,121,214.8-34.8,6.4-10.2c.2-.4.4-.9.5-1.4h.2Z"/>
    <path id="NJ" class="st0" d="M2253.8,515.8c-.8,1.3-1.9,2.5-3.4,3.6-3.2,3.5-3.5,12.4-3.2,20.2.2,3.5.6,7.4,1.6,10.9,1.9,4.6,4.6,8.3,8.1,9.9,4,1.7,6.6,4.8,8.2,8.1.2.3.3.7.5,1,0,0,0,.2.1.3.4,1,.8,2.1,1,3.3.1.7.2,1.3.2,1.9.3,4.5-1,8.3-3.4,9-.2,0-.5,0-.7.2-.9.6-2,.9-3.1.9-2.5.7-5,1.6-6.9,2.9-.6.6-1,1-1,1l-2.4,3.8c-1.5,3.5-3.2,5.1,1.2,9.6,4,4.1,5.3,5.4,5.7,5.8.3-.3.6-.6,1.1-.5,1.5.2,3.9,0,5,1.4,1.1,1.5,3.1,3.4,5,2s8-.5,8-.5c0,0,2.3.3,1.2,3.3s-1.6,8.4.9,8.1c2.5-.3,3.6-9.5,3.6-9.9s3.4-4.1,3.3-6.6c-.1-2.5-1.7-3.8-1.7-3.8,0,0,3.6.9,4.4-1.5.9-2.4,2.8-8.6,2.8-8.6,0,0,0-1.9-1.5-2.2s-2.3-1.9,1.3-2.2,5.3-4.8,5.5-8.2-2.8-9.5-2.5-12.5c.3-3.1,3.3-2.8,3.4-6.8,0-4-.1-11.7-.1-11.7,0,0,.3-5-3.3-5s-5.3,2.8-7.4,2.8-4.1-1.9-4.8-1.9,1.7-2.4,1.9-6,2.8-5,3-6.9c.1-1.9,4.2-8.6,4.6-10.3l.9-4.6s-28.8-7.1-36.2-10.1c.2.6.4,1.4.5,2.3,1,3.3,0,5.4-1.5,7.3v.2ZM2256,607.9s.7-.7-4.6-5c-5.3-4.2-2.5-7.8-2.5-7.8,0,0-2.8,3.5,2.5,7.8,5.3,4.2,4.6,5,4.6,5Z"/>
    <path id="RI" class="st0" d="M2388.3,445.9l-2.8-7.1-3.2-6-16.2,6.7c1.2,3.3,10.7,31.2,8.7,31.9-2.1.7-.1,6-.1,6,0,0,2.5-.6,3.5-1.7s7.3-3.4,8.6-5,3.2-2,3.1-5c-.1-3-2.1-6-2.1-9.3s4.4-5,4.8-1.9c.3,3.1,1,9.8,3,9.1,2.1-.6,2.1-4.4,2.1-4.4,0,0,4.7,0,4.8-1l-6.2-11.2-8.1-1.1h0Z"/>
    <path id="MA" class="st0" d="M2449.7,439.8c-1.1-3.9-2.8-7.1-3.8-10.8-1-3.7-2-6.6-5.1-9.3-3.1-2.7-7-6.2-9.9-4.7s-1.7,5.4,1.2,4.8,5.5.2,5.7,1.8c.2,1.6.9,2.7.9,2.7,0,0,2.9,1.3,3.4,4s.9,5.3-1.3,5.7c-2.2.4-3.5,0-4.9,1.7s-1.9,3.1-5.7,3.1-7.8-1.8-9.2-5c-1.5-3.1-1.9-5.3-5.1-4.4-3.2.9-3.8-3.4-2.3-4.2,1.5-.8,1.7-1.6.3-3.2-1.5-1.6-3.7-2.5-4.8-3.4s-.3-2.3-2.4-3.5c-2.1-1.3-7.4-1-7.4-1,0,0,.3,2.3-1.4,2.5s-7.6-3.1-6.6-5.2c1.1-2.2,1.8-4.2,1.5-5.6s4.8-2.5,4.4-4.3c-.3-1.8-1.3-2.1-.9-3.4.4-1.3,5.3-3,4.9-4.8-.4-1.8-3.8-2.5-5.2-3.6s-2.6-5.8-4.6-7.2c0,0,.2-.3.4-.7l-6.6-.8-1,1-3,3.5-1,.2-3.4.9-2,5.7-83.8,18s1.4,2.5,1.4,12.7.7,32.2.7,32.2l27.9-6.7c.1.5.3.8.4,1.1.6.4,1.5.7,2.2,0,.5-.8.9-1.8.9-1.8l41.4-8.5,16.3-6.4,3.2,6,2.8,7.1,8.1,1.1,6.2,11.2s1.6,1.2,3.8.3c2.2-.9,2.6-2.9,2.6-4.2s1.3-2.9,2.4-3.3c1.1-.4,2.6-3.7,2.6-3.7,0,0,1.5-5.7,3.7-5.7s2.1,1.7,2.1,3.6.7,7,3.4,5.9,6-3.8,8.7-6.4,4.5-2.4,5.6-3.4,7.2-5,8.2-1.6,5.1,4,4,0h.1Z"/>
    <path id="CT" class="st0" d="M2374.9,471.4c2-.7-7.6-28.5-8.7-31.9h-.2l-41.3,8.2c-.2.9-.6,1.4-.9,1.8-.6.9-1.5,1.6-2.2,0-.5-.3-.9-.7-.9-.7l-27.4,6.4s1.8,7.8,1.8,13.8,2.2,11.3,3.7,17.8c2,6.8,4.5,14.8,4.5,14.8l-5,7.8,3.2,4.2-3.2-4.2,3,5.8v-.3s1.8-.4,4.1-.7,4.8-2.7,5.6-4.4c.9-1.8,4.6-3.5,4.8-3.5s3.5-2.8,3.5-2.8h2.9c.2,0,1.5-2.1,3.4-3.8,1.9-1.7,2.1-4,2.7-5.5.6-1.5,1.9-1.5,2.4-.8s1.6.7,3.8-.4c2.3-1.1,6.1-1.9,6.4-2.1.3-.1,4.4-.5,4.6-.6.3,0,3.2-1.7,3.2-1.7l3.1-.2,1.3-2.9,3.5.9,3.5-3.1,2.9-.7,4.4-.9s3.1-2.5,3.3-2.5,3.9-1.7,3.9-1.7c0,0-2-5.3.1-6h.2Z"/>
    <path id="WV" class="st0" d="M2148.9,640.5c-1.7-2.9-2.3-7.2-3-9.2-3-3.8-11.9-3-14.4-.8-2.8,2.5-9.6,1.1-18,1.4-3.9.2-10,5.7-15.5,12-5,6.1-9.7,13.1-11.4,16.8-.2.5-.3,1-.3,1.3-.4,4.6-7.1,5.3-7.1,5.3l-4.8-36.8-46.1,7.5-1.3-9.6c-.7.2-1.4.4-2,.7-1.1.5-2.5,1.3-3.8,2.5-2.1,2.2-2.9,5.2-3.7,9.1-.6,4.3-2.9,4.1-4.1,4.7-.3,0-.5.3-.7.6-.6.8-1.1,2-1.4,4.1,0,.7-.3,1.2-.4,1.8,0,.2,0,.4-.2.7,0,.2,0,.3-.2.5v.2c-.7,1.6-1.7,2.8-2.7,4-.9,1.1-1.8,2.1-2.6,3.1-1.8,2-4.4,3.5-5.7,4.7-.2.2-.4.5-.5.6,0,.2-.2.5-.2.7.2.7-2.4.8-4.9,1.4-6.3,2-3.2,7.4-3.7,10.9-.4,3,.2,6.8-2.5,7.6-.5.4-1.2.5-2,.2,0,0-.3,0-.4,0-.3,0-.6,0-.9-.2-6.4-1.5-10.3.7-9.4,8.3.4,3.4,0,5-.9,6.3-.3.7-.8,1.3-1.5,1.7-.2,0-.4.2-.6.3-.6.5-1.4,1.1-2.2,1.9-2.7,3-4.9,8.5-2.2,15.2l-2.9,1.1c-.8,1.5-2.8,5.6-2.8,10.6s2.8,13.8,2.8,13.8c0,0,3.2-.7,3.5,2.8s-.4,4.2,3.5,4.2,4.2,5,4.2,5c5.7,0,9.5,8.1,12.4,11.3,2.8,3.2,12,12,14.5,3.9s11-15.9,11-15.9c3.9,7.1,12.4,5.3,12.4,5.3-.4-3.2,3.9-6,3.9-6,0,0,3.2-.7,11.3-.7s8.5-5.3,9.5-14.9c1.1-9.5,9.9-18.7,17.7-18.7s12.7-5.7,9.9-14.5,4.6-7.8,11-4.2c6.4,3.5,17.7-2.5,17.7-8.1s5.3-12.4,9.9-13.8c4.6-1.4,7.1-10.3,7.4-13.4.4-3.2,3.5-7.4,9.5-8.1,6-.7,7.1-1.4,9.5-6.4,2.5-5,8.1-9.6,8.1-9.6-1.2,0-2-1-2.7-2.7v-.4Z"/>
    <path id="OH" class="st0" d="M1968.2,706c.5-.6,1-1,1.5-1.5.7-.8,1.5-1.4,2.2-1.9.9-.7,1.6-1.3,2.1-2,1.3-2.8.2-8,.2-11.1s6.3-4.9,10.9-3.3c1,.2,1.8,0,2.4,0,2.5-1.9,2.2-10.6,1.9-14.6-.2-2.4,2-3.4,4.3-3.9.6-.2,1.2-.3,2-.5,0,0,1.5.2,3.1-1.6,0-.2.3-.4.5-.6.2-.3.4-.6.6-.9,1.3-2.2,4.9-3.9,7.7-6.9,1.1-1.3,2.1-2.7,2.7-4v-.2c0-.2,0-.3.2-.5,0-.2.2-.5.2-.7,0-.3,0-.6,0-.8,0-2,.7-4,1.7-5.1,1.6-2.2,3.9-.7,4.8-5.3h0c0-.7.2-1.5.2-2.4,0-2.9,1.6-5.1,3.5-6.7.9-1,2.2-1.8,3.8-2.5.9-.5,1.6-.7,1.6-.7,0,0-.6.2-1.6.7.6-.3,1.3-.5,2-.7l-15.7-111.4s-3.7-1.5-6.5-1.3c-2.9,0-8,1.1-11.7,5-3.6,3.9-5.8,8.8-10,9.9-4.2,1.1-7.9,2.3-11.7,6-3.8,3.7-9,6.8-11.9,4.4-3-2.5-7.4-2.8-10,.2s-4.6,4.8-8,4.8-4.8,1.7-6.6,4.8c-1.8,3.1-7,6.9-11.7,7.3-4.8.4-8.4-1.1-8.4-2.4s6.6-2.6,8.2-3.2c1.7-.6,2.8-1.5,2.7-2.5,0-1.1-4.3-2.2-9.7-1.5-5.4.7-11.1.5-11.1-2.4l-70.3,5.7,15.9,142.2c6.4-4.3,13.1,1.1,15.9,3.9,2.8,2.8,17.3,3.9,23.7,3.9s9.2,3.2,12.7,6.4,6.4-.7,11.3-.7,8.5,2.1,12.4,2.1,4.2-2.8,7.8-4.2c3.5-1.4,8.1,4.6,16.3,11,5.5,4.3,11.2,4.4,14.4,4h0q0,0,0,0c1.6-.2,2.6-.5,2.6-.5,0,0-3.8-8.5.8-13.7h0Z"/>
    <path id="MD" class="st0" d="M2297.4,677c-.3-1.3-.7-1.5-.9-2l-29.9,4.7-22.3-76.8-1.3.2h0c0,0,0,0,0,0l-168.7,27.3,4.8,36.8-4.2-36.4,4.2,36.4s6.6-1.4,6.7-4.6c0-.4.3-1.2.7-2,1.3-3.4,6-10.5,11.4-16.8,2.1-2.5,4.2-4.9,6.1-6.8,7.7-7.5,9.7-5.9,13.1-5.7,3.3.2,11.6.5,15.3-2,3.7-2.6,12.3-.9,13.4,1.8h0c.4.5.7,1,.8,1.7.7,3,1.4,5.6,2.2,7.5.7,1.2,1.6,2.2,2.7,2.7,2.5,0,8.1-1.4,11.7,5.7,3.5,7.1,11,9.2,14.5,9.2s12.4,7.8,11.7,13.1-9.2,8.5-5.7,15.9,6,7.4,10.6,7.1c4.6-.3,5.3,0,11.7,4.2,6.4,4.3,16.3,2,23.9,9.8l4.7-4.8,1.1.7v4.5s2.1,1.3,3,2.5c.9,1.3,4.1.5,2.7-2.7-1.4-3.1-5.5-6-5.5-6l-.4-2.7s1.3-2-2-2.7-10.5-3.4-14.4-9c0,0,3.2-3,6.8,0s5.8,6.4,8,5.1c2.2-1.3-4.9-7.3-6.6-8.4-1.7-1.1-2.9-6.9-3.3-9.8-.4-2.8-1.2-4.2-1.4-5.6-.2-1.3,2.3-2.7,2.1-4.3-.1-1.6-3.6-1.2-3.6-3s3.3-2.4,3.6-3.8c.3-1.5-.5-1.6-.5-2.5s2.9-.7,2.9-2.5-6.2-1.7-6.2-2.9,2.3-3.3,2.3-3.3l-7-6.4s-2-4.2,2.2-1.8,5.8,1.1,3.6-1.1c-2.2-2.1-1.5-1.6-1.5-1.6h1.9c0,0,.3-3.3.3-3.3h2l.2-3.1s2.7-.8,2.7.9,2,1.8,2.1,0c0-1.9.5-2.9.5-2.9,0,0,4-1.2,4.4-2.8.3-1.7.2-2.8.2-2.8,0,0-1.7-3.8,1.2-5.8s6.6-2.3,5.3,1c0,0,3.8-1.3,4.5.6.7,1.9-3.4,5-3.4,5l.8,3.4s.1,2.4-3.6,2.4-4.9,1-6.6,6.2c-1.7,5.2-2.1,10.7.8,10.7s5.3-2.9,4.6,1c-.7,3.8-.3,6.7-.3,6.7,0,0-3.2.9-.9,4.6,2.3,3.8,4.8,8.3.9,6.2-3.9-2.1-5.6-.7-5.5,1.8.1,2.6,2.7,3.7,4.5,3.7s2.9,2.5,5.1,0c0,0,1.3,3.6,4,5.2,2.7,1.6.1,3.7-2.3,2.3-2.5-1.4-6.8-2.6-6.8-.3s1.4,4.7,3.8,3.5c0,0-2.9,3-3.3,5.4-.4,2.3.7,4,3.9,5.5,3.1,1.5,7.9,3.4,8.9,5.8l1.1-4.8s2.5-2.5,3.1-.8c0,0,2.4-1.6,3.2-.9.9.7,0,2.6.8,3.6.8,1.1,4.3,1.5,2.1,3.5s-2.7,3.1-2.7,3.1h6.3c0,0,2.4,1.2,0,2.7-2.3,1.5-3.4,2.8-1.1,2.8s4.6,1,2.5,2.7-4,3.7-2.7,5.2c1.3,1.6,1.7,1.8,6.4-1.1,4.7-2.8,10.1-5.2,12.3-5.9s6-3.3,6.9-8.3,4.7-10.9,4-5.6c-.7,5.3-.2,9.6-.2,9.6l2.9-1.4,1.3-17.2s-1.3-1.8-1.4-3.3c0-1.5,2.3-2.5,2.1-3.7v.3Z"/>
    <path id="MN" class="st0" d="M1592.1,208.9c-17.7.3-25.1,9.2-50.6,5,0,0-.6,2.8-6.5,0-5.8-2.9-15.7-9.3-18.6-5.8-2.9,3.4-5.3,1.1-6.4-.5s-4.2-2.4-7.7-1.8c-3.4.5-4.8-1.3-1.3-4,3.4-2.7,3.2-6.1-1.3-10.6s-5.8-2.4-4.5,1.6c0,0-5.3,1.6-6.4,2.9-1.1,1.3-3.7,0-3.7,0,0,0-12.2-6.9-28.1-6.9,0,0-7.4-4.8-13.8-4.5s-13.3,1.1-18-2.9c-4.8-4-6.6-5.6-7.4-6.1s-4.5-1.1-4.5-1.1c0,0-1.6-5.3-4-5.6l-2.1,4s-4-2.7-7.7-8.5l-71.1,1.3s-35.7-1.5-82.1-4.1c41.1,2.9,76.1,5.1,85,4.6,0,0-.5,5.5-3,9.8-.6,1.2-1.3,2.2-2,3-.2.2-.3.3-.4.5-1,1.9-.2,2.6.9,3.4.8.4,1.6.7,1.9,1.2.2.3.2,1,0,1.8,0,.5,0,1.1-.2,1.7-.2,1.8-.6,3.9-.3,4.9,0,.2.3.4.4.7,1.4,1.1,4.4,4.5,4.7,7.9,0,1,0,2.2-.3,3.2,0,.6,0,1.1-.3,1.7-.6,2.3-.6,3.3-.2,3.9.8.5,1.9.8,2.1,2.4.2.6.2,1.2.2,1.8,0,.4.3.7.5.9.9.2,2.8,0,2.8,1.5s-.3,6.2-.3,6.2c0,0,1,1.9,2,4.4,1.4,3.3,3,7.8,3,10.7,0,5,1.3,25.5,2.1,31.3.4,2.6.7,4.9,1.3,7.3,1.1,3.7,2.1,6.7,2.8,9.4,0,.2,0,.3.2.5,2.7,7.2.8,14.1.3,18.6-.3,2.7-1.2,8-1.4,14.3,0,4.5.3,9,1.1,13,2.9,4.5-.3,16.4-1.1,23.6-.8,7.2,3.7,12.7,3.7,12.7l-1.3,103.2,211.2,1.1s0-5.3-1.6-6.9-1.3-3.2-.8-5.8c.5-2.7,2.9-6.6-4-8-6.9-1.3-4.5-4-4.2-6.1s.5-5.3-7.2-8-10.3-3.7-11.4-7.4c-1.1-3.7-5.8-13-14.9-12.5-9,.5-7.7-2.4-10.1-6.6s-4-6.4-6.1-7.2c-2.1-.8-5.3-5.8-5.3-10.9s1.3-10.6,4.5-14.9,1.6-11.1-.3-13.3c-1.9-2.1,0-13.8-3.7-21.5,0,0,8.8.8,13.8-4.2s8.2-9,8.2-9l1.6-33.4,3,.2s-1.1,0,1.1-5.3c2.1-5.3-.4-12,7.8-16.6,8.1-4.6,16.3-7.1,18.7-14.5,2.5-7.4,10.6-14.1,19.8-20.9,9.2-6.7,11-10.3,24.4-14.9,13.4-4.6,19.5-5.3,19.5-9.6,0,0-5-6.7-22.6-6.4h.1Z"/>
    <path id="MT" class="st0" d="M647,72.7l-34.7-8.5,10.1,3.1,23.9,5.2s-5.3,11.9-6,18.6c0,.4,0,.8-.2,1.2,2.2-8.4,6-19.2,6-19.2,0,0-3.8,10.8-6,19.2-.3,2.6-.8,5.2-1.4,7.8-.3,5.6-4.1,12-5.2,13.8-.3.8-.5,1.6-.5,2.5,0,1.4.7,3.4,2.6,6.2,1.9,2.8,5,8.7,7.6,13.8,1.1,1.8,1.9,3.5,2.5,4.8,1.3,2.5,2.1,4.2,2.1,4.2,0,0,2.4,3.7,5,3.7,0,0-3.2,7.4-.5,8.8,2.7,1.3,6.9.3,7.7,3.7.2.7.4,1.4.7,2.1,0,.3.2.5.3.8.9,2.2,1.7,4.2,1.2,6.6-.6,2.7-1.4,8.1-.3,12.2v.2c2.6,5.1,6.5,6.8,6.9,10.6.4,1.1.3,2.3-.3,3.6h0c-.7,3.9-1.6,7.7,1.6,12.7,2.3,2.8,7.2,8.7,3.8,16.5-.6,1.6-1.5,3.2-2.9,4.6-6.4,6.5-8.3,2.8-8.8,11.8-.2,3.7-.3,6.1-.4,7.9,0,1.1,0,2-.2,2.8,0,.8-.5,1.7-.9,2.6,0,.4-.3.7-.5,1.1-1.9,4.2-2.7,6.2-.5,7.3,2.1,1.1,3.2,1.9,5.8-.5,1.3-1.2,3.6-3.3,5.5-4,1.3-.7,2.4-.8,2.7.7.3.7.3,1.8,0,3.5-.7,5-1.4,6.8-1.3,9,0,.4.3.8.6,1.3,2.4,4,4.8,21.2,5,26.8,0,0,.3,1.8,1.8,4.2.3.4.7.8,1.2,1.2,2.2,2,4.6,4.6,6.1,7.3.9,1.4,1.5,2.8,1.5,4.3v2.8c.3,2.2,1.4,5,2.9,7.8,1.8,2.7,3.9,4.6,3.9,4.6,0,0,1.2,1.5,3.1,3.4,5.6,4.3,11.6,7.7,19.2,7.3,5.7-.3,9.7-1.6,12.2-2,0-.8,5.3.3,5.3,1.9s.5,1.7,1.7,2.4c.3,0,.5.2.8.2,4.1.5,9.7,1.2,10.8,2.7,0,0,5.6-3.9,8.6-1.8,1,.2,2,.7,2.8,1.5,1.5,1.5,2.2,3.1,2.6,4.5,0,.3.3.7.3,1v.2c0,.3.2.7.3.9,0,.1,0,.2.2.3.4.6,1,1,1.7,1.2h1.4l10.2-.5,6.8-28.4,265.3,40.7s1.3.9,2.4,0v-.2.2c.6-.4,1-1.4,1.2-3.3,0-1.6,2.8-23,6.4-51.8h-.3.3c8-64.3,20.9-165.4,20.9-165.4,0,0-12.8,101.1-20.9,165.4l21.4-166.6s-290.9-39.4-433.1-75.5v.4Z"/>
    <path id="ND" class="st0" d="M1350.2,299c.9-5,.3-8.9-1-13.6-1.3-3.7-2.2-6.6-2.8-9.4,0-.1,0-.2,0-.4-3-10.3-3.4-33.4-3.5-38.9,0-3-1.5-7-2.8-10-1.1-2.5-2-4.4-2-4.4,0,0,.5-6.9-.3-6.9s-1.6-.1-2.2-.9c-.3,0-.5-.2-.5-.4v-.5c0-.3-.2-.7-.2-1.1v-.7c-.2-.4-.4-.9-.8-1.2-.5-.5-1-.7-1.3-1.2-.2-.1-.4-.2-.5-.4-.6-.6.4-2.8,1-5.3.3-3.5-1-6.9-3.1-9.5-.5-.7-.9-1.2-1.2-1.7h0c-.2-.1-.3-.3-.3-.6-.7-1.2-.7-1.8-.7-1.8,0,0,.6-1.5.9-3.2,0-.6.2-1.2.2-1.7,0-1-.2-1.8-.8-2.2-.4-.3-.8-.5-1.2-.8-1.3-.7-2.5-1.5-.9-3.4.3-.5.7-1.1,1.3-1.8.4-.5.8-1.1,1.1-1.6,2.1-4.1,3-9.8,3-9.8-8.9.5-43.9-1.7-85-4.6-53.9-3-122.3-7.5-166.2-12.9l-21.4,166.6c22.6,3.4,51.5,6.1,82.3,8.3,90.8,6.1,208.4,8.6,208.4,8.6-.9-4.5-1.2-8.9-1.1-13,0-7.5,1-14.9,1.9-19.9l-.2.3Z"/>
    <path id="ID" class="st0" d="M765.9,358.1h-.8c-.9-.1-1.4-.6-1.7-1.2,0-.1,0-.2-.2-.3,0-.3-.2-.6-.3-.9,0-.4-.2-.8-.4-1.2-.7-1.8-2.6-3.8-5.2-5.9,0,0,0,0-.2-.1-3.9-.9-8.6,1.8-8.6,1.8,0,0-2.9-1.9-7.2-1.9s-3.5-.4-4.4-1c-3.1-.8-2.9-3.4-4.7-4.2-.5-.3-1.3-.2-2.3,0h0c0,.8-6.9,2.1-7.7,2.1h-6.1c-2.9,0-2.7.8-9.3-1.9-3.4-1.3-6.3-3.7-8.3-5.6-.3-.2-.6-.4-.8-.6-2.5-2-4.6-4.7-6.1-7.4-.3-.5-.6-1-.9-1.5-1.3-2.4-1.8-4.2-2-6.3v-1.9c0-1.7-.5-3.5-1.5-5.2-1.3-1.9-3.1-3.8-5.1-5.8-.9-.9-1.6-1.9-2.2-2.7-2.4-2.6-2.2-4.2-2.3-7.5-.2-3.7-.5-10.1-3.4-18-1.2-3.3-1.7-5.1-1.7-6.7-1.2-3.5,1.4-7,1.4-11.5s0-.7,0-1c-.5-1.2-1.5-1.3-2.7-.7-1.5.8-3.4,2.6-4.8,3.9-2.9,2.7-4,2.7-7.2.8-2.5-1.4.2-5.3,1.7-8.5.8-1.9,1-3.3,1.1-5.5,0-3.5-.4-8.1.6-12.5,1.3-5.8,6.4-2.1,10.9-10.6.2-.4.4-.8.6-1.2,1.9-5.6-.7-11.9-3.8-16.5-2.4-2.9-3.7-8.4-1.6-12.7,0-.8.3-1.6.4-2.4v-1.3c-.8-2.6-3.6-5-5.6-7.8-.6-.8-1-1.8-1.3-2.9-2.7-5.6.9-12.1-.5-17.3,0-.5-.3-1-.5-1.5,0-.3-.2-.5-.3-.8-1.4-3.5-3.4-4.7-7.4-5.3-4.8-.7-.4-9.2-.4-9.2-3.4,1.7-5.4-2.4-6.8-7,0-.3-.2-.6-.3-.9-.7-1.4-1.6-3.1-2.5-4.8-2.8-4.8-6.8-10.8-8.7-14.8-1.1-2.2-1.5-3.8-1.5-5.2,0-1.4.2-2,.2-2,0,0,0-.2.3-.5.4-1.1,1.1-2.3,1.9-3.8,1.2-2.4,2.4-6.1,3.3-10v-.3c0-1.8.6-4.5,1.4-7.6,0-.4,0-.8.2-1.2.7-6.7,6-18.6,6-18.6l-23.9-5.2-10.1-3.1-50.6,158.6h-.2c.6,1.9,2,6.2,3.5,9.7,1.6,2.3,3.8,4.9,4.1,7.6.2,1.8,0,3.7,1.4,6.1,1.5,1.8,4,3.8,6.6,7.1,1.7,2.1,1.8,4,1.3,5.6-.4,2.6-2.5,4.5-4.7,4.4-.7,0-1.4.2-2,.4-.7.3-1.3.6-2,1.1-.4.4-.7.8-.8,1.4-.5,2.1-4,3.7-6.9,4.5-1.2.6-2,1.5-2.7,2.4-.6,1.3-.8,2.8-1,4.3,0,.9-.6,2.3-1.2,3.8v.5s-4.1,8.7-7.1,15.7c-1.7,4.3-3.3,8.5-3.4,9.4-.3,2.1-1.9,5.3-4.2,6.9-2.2,2.5-3,5-3.7,7.4v.8c0,3.4-3.4,7.4-2.1,10.3,1.3,2.9.8,4.8.8,4.8l-29.2,102.1,115.9,29.7,123.4,23.6,29.3-135-.3,1.3.3-1.3c-1.9.1-7.3.5-10.6.5h-.2l-.3-.3Z"/>
    <path id="OR" class="st0" d="M568.9,242.9c0-2.9.5-2.9-1.9-6.4-2-2.8-4.6-11-5.5-13.9l-72.5-19.7c-1.1-.3-2-.5-2.6-.6-.6,0-2.5,0-4.6.1-3.5.3-8.5.6-9.6.7-2.3.8-4.8,2.1-6.5,2.1s-3.2-2.1-3.2-2.1c-.4.2-.9.4-1.4.6-.1,0-.3.1-.5.2-.2,0-.4.2-.7.2-8.7,2.6-26.8,2.2-34.7-.7-4.2-1.5-9.7-2.6-14.8-3.3-3.3-.3-8.1-.7-11.1-.7s-3.6-.7-5-1.8c-3.2-1.5-4.8-4.5-6.2-6.8-2.5-1-7-.2-8.1-.2s-6.4,1.1-7.4.5c-.7-.3-4.1-1.1-7.9-2.1-2-.4-4.3-.9-6.7-1.3-3.8-.7-7.8-3.9-10.8-6.9-2.8-2.4-5.2-4.7-5.2-4.7,0,0-1.9-.8.4-.8,1.6-1.3,1.9-5-.3-8.2-1.5-1.4-.8-5.7-.4-7.9-.5-1.5-1.4-3.4-2.4-4.8-2-2.6-6.5-4.8-10.4-6.3s-11.6-3.8-15.6-6c-4.1-2.2-10.4-6-10.4-6,0,0-4.7-3.1-5.8,1.6-1.1,4.6-1.1,3.8-.9,7.7.3,4,.6,8.2-1.5,13-2.2,4.9-10.8,14.4-10.9,14.5,0,.2-5.1,6.9-5.1,6.9v4.5s-5.4,3.5-7.2,7.8c-1.8,4.4-3.4,11.5-3.8,14.1s-4.9,6.9-5.8,11.7c-.9,4.7-1.9,6.3-3.5,8.2-1.5,1.9-2.9,3.1-.8,5.9,2.1,2.7.2,4.6-1.4,5.9-1.5,1.3-5.6,3.1-5.7,6.1-.1,3,.9,5.7-1.7,6.6-2.6.9-6.3,3.2-7.7,6.4-1.4,3.2-3,8.1-3,8.1,0,0-4.5,1.1-5.9,4.5s-.8,6.4-.8,6.4c0,0-1.8,3.3-4.6,5-2.8,1.8-2.6,4.1-2.9,7.2-.3,3-1.2,6.2-3.3,8.4-2.1,2.1-1.5,3.1-1.5,3.1,0,0-.2,1.5-3.9,1.8s-9.5-2.7-11.8-1.4c-2.4,1.3-5.9,5.3-2.2,9.5s7.6,7.6,7.4,12.4c-.2,4.7-.3,9.9-.3,9.9,0,0-2.7.3-3,5-.3,4.8.3,11.4.3,11.4,0,0,1.3,3.1.9,4.6l170.2,51.8,131.6,34.5,29.2-102.1s.5-1.9-.8-4.8,2.1-6.9,2.1-10.3,1.3-6.6,3.7-8.2,4-4.8,4.2-6.9c.3-2.1,7.7-19.9,7.7-19.9,0,0,3.7-6.9,4-9.6s.8-5.8,3.7-6.6c2.9-.8,6.4-2.4,6.9-4.5s2.7-2.7,4.8-2.9c2.1-.3,7.7-4.8,3.4-10.1-4.2-5.3-8.2-7.4-8.2-10.3h-.1Z"/>
    <path id="WA" class="st0" d="M342.1,167.1c2,1.9,2.5,8.2.3,8.2,0,0,2,2.7,4.8,5.5,2.5,2.1,5.3,4.3,7.3,5.1,2.2.9,6.4,2.1,10.2,3.2,4.2.9,7.2,1.8,7.9,2.1,1.5.6,13.4-3.7,15.3-.8,0,.1.1.2.2.4.7.3,1.2.6,1.5,1.2.8,1.6,2.5,4,4.8,5.6.8.3,1.6.6,2.6.8,2.8.4,8,.9,13.6,1.7,2.1.2,3.5.3,3.5.3,0,0,10.3,2.1,13.8,3.5,3.5,1.3,9.8,1.3,12.5,1.3s13.4.6,19.7-1.2c.2,0,.5-.1.7-.2.2,0,.3-.1.5-.2.5-.2,1-.4,1.4-.6,0,0,1.8,3.5,9.5,0h.2c1-.3,1.9-.6,2.8-.6,1.4,0,4.3,0,6.8-.1,1.7-.1,3.1-.3,3.4-.3,0,0,.5,0,1.2.2h.2l2.4.7c15.4,3.9,72.5,19.7,72.5,19.7,0-.4,0-.2,0,0h.2l50.6-158.5L404,11.7s-1.2,4.6,1.4,6.2,1.9,3.7-.2,5.3-4.5,4.8-3.2,5.4c1.3.7,3.8-1.2,5-2.3,1.1-1.1,3.8-2.7,4.6-1.5.8,1.2-.2,2.8-2.2,4.7s-3.2,3.3-2.1,4.8,1.6,4-.3,4-3.1.2-1.8,2.5c1.4,2.3,1.1,2.5-.2,3.9-1.4,1.4-4.2,4.5-4.2,4.5,0,0-2.4,4.8.4,6.9,0,0,1.9.4,2.4-.8.4-1.2,2.7-2.7,3,0s.1,8,.1,8c0,0,2.4,4.3,3.1,6.6.7,2.3,0,8-1.6,8s-2.9-3.4-2.8-4.7c0-1.3-.7-4.8-3.3-4.8s-5.2,3.7-6.5,5.5c-1.2,1.9,0,5-2.1,5.4-2,.3-5.4,3.1-3.7,6.1,1.7,3,2.6,5.6,1.7,6.7s-5.6,1.3-5.7,3.1c-.1,1.8.8,6.5,0,6.5s-6.1-3.6-4.8-8.8c1.3-5.2,5.2-7.4,4.7-9.1s-1-3-1-3.8,4.8-2.9,5-5.1,1.9-9.5-.4-9.8-5.4,2-6.5,5.1-2.5,9.9-3.6,9.9-4-4,0-10.9c4.1-6.9,8.3-8.3,8.8-10.2.5-1.6.4-3.9.3-4.6-.4,1.3-1.4,4-3,3-2.1-1.3-3-8-3-8.3s-.4-2.8-2.2-2.6c-1.9.2-.9,4.4-.9,4.9s0,1.8-1.6,1.4c-1.5-.4-2.7-3.5-3.1-5.1-.3-1.5-1.6-3.8-5-3.4-3.4.4-6.7-.5-9.1-1.2s-3.8-.7-5.1-.5c-1.3,0-2.4-.2-3.6-1.6-1.2-1.4-1.4-3.9-4.9-4.8-3.5-.8-7.3-.6-11-3.9-3.7-3.3-16.8-17.6-16.8-17.6l-.5,6.7s-.7,11.9-4.6,11.7c0,0-2.7,3.4.8,8.2s5.5,7.2,4.6,10.3c-.9,3.2-1,11.8-1,11.8,0,0-1.8,6.7-2.3,8-.6,1.3-2.7,5.6-2.6,8.5.2,2.9.2,6.4-.5,7.7-.7,1.3-5.4,3.4-6,5.9s.2,8,3.4,5.3c3.2-2.6,3.1-4.6,3.1-4.6,0,0,6.5,3.9,6.6,4.2.2.3,2.3,3.4-1.3,3.3-3.5,0-9.8.6-9.8.6,0,0,7.9,6,7.8,8.1,0,2.1-.7,3.9-4.8,5.8-4.1,1.9-3.8,5-3.7,6.1.1,1.1-.7,5.3-3.8,5.2-3,0-1.7-4.7-1.3-7.7.3-3-1.2-6.1-.4-7.7.7-1.5,3.5-2.4,2.8-4.2-.7-1.7-1.3-3.8-5-3.8s-5.4,1.7-5.4,3.1,4,4.6,4.2,7c.2,2.5-.6,6.8-.9,7.8-.4,1.1-2.7,7.5,0,9.8,2.8,2.3,5.4,1.7,9.5.8s8.1,2.9,10.3,4.9c2.2,2,9.3,4.9,11.9,6.2s11.7,5.8,12.2,8.9c.4,3.1-.4,8.8-.4,8.8v-.3c-.3.5-2.2,3.1-.2,6h.4Z"/>
    <path id="NC" class="st0" d="M2268.3,779.4l-254.9,39.7-6.6,9.7c-.6,1.8-2.4,4.1-4.6,6.1-2.9,3-6.2,5.1-8.2,6-1.6.9-2.9,2.8-3.8,4.6-.8,1.8-1.2,3.4-1.2,3.4l-19.5,12.7s-2.5,3.9-2.1,5.3h-.3v.2h-1c-1.1.2-2.9.5-4.8,1.3-3.3,1.7-6.8,4.7-9.8,7.8-.9,1.1-2,2.2-3.2,3.5-1.2,1.4-2.2,2.6-3,3.7-4.5,5.8-18.2,15.5-27.3,15.5s-.4,0-.6,0c-3,.3-5.3,1.1-7.1,1.9-1.4.7-2.6,1.5-3.6,2.3-2.1,1.9-2.7,3.7-2.7,3.7,0,0-5.5,2.2-9.6,5.2-2.1,1.8-3.3,3.3-4,4.5-.2.5-.2.9-.2,1.3l-.6.3v.2c-2.5,1.3-4.7,4.8-4.7,4.8l-43.5,4.6,112.5-11.7,29.2-17,58.9-3.2,25.5,15.4,43-7.4,60,46.6s1.9,1.5,4.1.6c2.1-.9,5.2-2.6,5.2-2.6,0,0,.3-.3.3-2.8s3.1-5.1,7.8-2.8c4.8,2.2,11.9,4.5,7-2.5s-3.7-9.1-3.7-9.1l15.5,14.3s2.8,0,1.3-3.5c-1.5-3.4-5.2-7.8-4.2-11.7.9-3.8,5-7.1,6.6-8.5,1.5-1.4,2.4-1.8,2.4-3s-1.9-4.6-2.6-4.8c-.7-.3,4.2-2.2,5.6-4.8,1.5-2.7,3.1-5.3,4.1-5.9,1.1-.6-4.7,1.1-5.8,1.9-1.1.7-2.5-.9-2.3-3.1.2-2.3,6.7-9.4,11.3-11.6,4.6-2.2,11.8.5,14.5-2.1s6.9-4.6,6.9-4.6c0,0,2.8-1.9,8.2-.7,5.4,1.3,9.3-2.2,12-6.1,2.7-3.9,5.8-10,2.5-12.9s-7.5-.5-11,3.5-6.6,6.4-12.3,6.8c-5.6.3-12.3-3.8-14.1-8.4,0,0,3.5-.8,9.6,3.8,0,0,2.6,2.3,4.6,1.9,2.1-.4,3.8-1,7-3.8s7.5-5.6,7.1-8.4c-.4-2.7-2.5-3.3-4.4-1.5s-4.3,3.5-8.4,3.9c-4.1.5-8.5-1.9-9.9-3.2s-2.2-.4-3.1.5c-.9.9-4.4.4-4-2.5.4-2.8,3.2-7.2,6.8-7.2s5.8,2.6,7.2,3.8c1.3,1.2,3.7,1.5,4.4.5.7-.9,1.7-2.1-.8-3.9-2.5-1.9-4-6.6-2-7.6s4.4.6,4.9,2.8,6.4,8.8,10.1,8.8,3.4-1,3.4-2.5,0-3.1,3.4-3.4c3.4-.3,9.2-4,7.8-9.9,0,0,.4-1.3-3.2-1.2-3.6,0-11.4,2-14.5-1.3,0,0,3-5.4,12.1-2.8,9.1,2.6,13.7-4.3,13.3-9.7-.5-5.4-2.3-16.4-7.8-15.3-5.5,1.1-3.3,9-2.3,11.4,1.1,2.5,1.5,8.4-1.9,8.4s-5.2-4.8-3.4-7.8c1.9-2.9.7-9.8-1.3-9.8s-4.3,4.8-5.8,5.9c-1.5,1.1-5.2-1.5-8.1-1.1-2.8.5-7.9,2.7-10.6,5.6-2.7,2.8-7.2,5.4-7.2,0s3.8-8.2,7.8-8.2,9.6-1.3,10-4.9c.3-3.6-4.4-2.6-4.1-4.4.3-1.8,4.6-4.5,8.9-1,4.3,3.5,10.1,4.6,11.9,1.1,1.8-3.6,1.4-9.4-6.2-12.6l1.2-5.1s2.7-3.6,3.9,0c1.3,3.5,6,9.8,8.8,12.9,2.7,3.1,5.7,9.1,6.9,12.9,1.2,3.8,6.1,9,7.6,10.1l-20.9-41.9h-.3Z"/>
    <path id="TN" class="st0" d="M1889.7,918.1c0-.3.3-.8.8-1.7.5-1.5,2.1-3.1,4-4.5,2-1.7,4.8-3.5,8.7-5.2,0,0,1.3-1.8,3.6-3.7.9-.8,2.1-1.6,3.6-2.3,2-1.1,4.4-1.8,7.1-1.9.6,0,1.2,0,1.8-.2,9.7-.5,21.8-11.3,29.1-19.1,1-1.1,2-2.3,3.2-3.5.8-1,1.5-1.8,2.1-2.5,2.1-2.7,5-4.3,7.7-5.3,1.6-.8,3.3-1.3,4.8-1.3s.8,0,1-.2c0-.8-.3-4,4.5-7,5.5-3.4,17.2-11,17.2-11,0,0,.5-1.7,1.5-3.5.8-1.8,2-3.8,3.4-4.4,0,0,.3,0,.4-.2,0,0,.2-.2.3-.2,2-.9,5.2-3.2,7.8-5.7,1.6-1.7,3.1-3.7,4.1-5.9,2.8-6.2,6.9-9.7,7-9.9l-2.1.3-96,9-17.7,1.3-184.3,13.8,2.3,3.3,2.8,3.3-63.7,5.3s-.5,4.3-1.4,8.8v.4c0,3.7-1.7,6.9-2.6,8.4,0,0,0,.2-.2.3-.2.3-.4.5-.4.5-.9,2.6-1.1,4.6-1,6.2.2,1.1.5,2.2.8,3.2.7,1.7,1.7,3.1,2,5,.3,1.7-.5,2.8-1.5,3.6-.8,1.5-2.1,2.5-3.8,1.7l1.4,5.7-2.1,2.1s.4,5.6-4.6,9.2c-5,3.5-7.1,8.8-7.1,14.1s-1.1,6.3-1.8,7.7l85.9,3.6,123.1-8.5,43.5-4.6c0-2,3.4-4.2,4.7-5v.5Z"/>
    <path id="NY" class="st0" d="M2284.3,381.2c-1.1-2.6-2.3-5.7-2.9-10.1-.1-.5-.2-1-.3-1.4,0-.5-.2-.9-.2-1.2v-.4c-2-5.4-6.7,5.5-6.7,5.5,0,0,.9-5.6.8-10.7-.5-3.1-1.3-6.2-2.4-9-.5-1-1-2.1-1.4-3.2-2.2-4.8-2.2-7.9-1.9-13.3,0-9.3-.9-15.1-5-20-2-2.4-3-4.5-3.4-6.6-.6-1.5-.7-3.1-.2-4.7,0-.5.2-1,.4-1.5,0-.3.2-.6.2-.8,0-1,0-2.1-.2-3.1-.9-4.1-3.7-8.5-3.7-8.5l73-20.5-113.6,31.8s-7.2,2.3-9.7,2.3-4.8-.9-7,.6-9.1,6-11.7,9c-2.7,3.1-6.3,9.3-7.4,11.2-1.1,1.9-4.6,4.1-6,7.9s-3.1,7.4-3.6,9c-.6,1.7-2,6.8-3,8.8-1.1,1.9-14.1,17.4-14.1,17.4l4.1,3.3s.7,1.4,1.9.2c1.2-1.2,2.3,1.7,3,2.8.7,1.2,1.1,3.6-1.3,4.6-2.5,1-3.3,1.4-1.1,3.2,2.3,1.8,5.6,7,5.9,9.6.3,2.7,0,7.4-3.7,7.5-3.7,0-6.6.7-6.4,3.6,0,0-3,2.3-4.1,5.2-1.1,2.9-1.2,4.2-4.2,6s-7,3.5-7.5,5.2c0,0-5-2.8-11.9-.3-7,2.5-10.1,6-10.1,6,0,0-3.7.3-7.1-2.1-3.4-2.5-6.5-2.3-10.5-2.3s-10.9,2.6-13.6,3.2c-2.7.6-12.7.7-19.1,4.1-6.4,3.4-9.2,4.8-9.2,7.3v9.2s2.5,0,2.5,2.8.8,5.2,1.8,4.7,2.9-1.6,4.2.7,3.2,4.2,2.7,5.8c-.5,1.6-2.2,4.3-4.5,6.6-2.3,2.3-2.8,4.5-2.8,5.8s-2,3.3-4.2,5.2-11.9,9.9-15.1,14.7c-3.1,4.8-5,6.6-5,6.6l2.3,11.7,169.8-33.6s8.5-2.8,15.9,3.5c7.4,6.4,11,15.2,14.9,19.1s9.9,3.5,11.7,5.7c1.8,2.1,37.8,11,37.8,11l-.9,4.6c.3-1.7,3.5,2.5,3.5,2.5l1.3,3.6s-2.9,2.5-4.2,6.2c-1.4,3.7-1.1,7.2,2.3,7.2s2.3-1.3,2.6-2.6,2.5-3.7,2.9-2.7c.4,1.1,2,2.8.7,3.9-1.3,1.1,5-2.3,5.8-3.1.7-.7,2.7-1.1,7.6-3.8,4.8-2.8,11.6-7.6,15.5-10,3.8-2.3,6.7-2.9,8.6-4.6,1.9-1.7,5.6-4.5,6.2-3.6.5.9-1.6,3.4-7.7,7.1-6.1,3.7-12.2,6.3-11.2,7.9,1,1.6,9.3,1.7,23-10.5,13.7-12.3,12.9-12.5,18.7-16.5s10.9-9,9.4-10.2c-1.5-1.3-6.2,2.3-8.4,3.8s-5,.1-5,.1l-1.7,2.8-4.4,1.1s-1.5,3.5-2,4.2-1.4,1.5-1.7,2.1-1.3,4.8-2.9,3.5c-1.6-1.3-4.6-2.3-2.5-4,2.2-1.8,3.8-2.8,3.9-4,.1-1.1,1.8-2.3,1.8-3.7s2.5-4,3.6-4.4,3,.3,3.1-1.3c0-1.6-3.9-2.3-6.4-.9-2.5,1.5-4.1,6.9-4.8,8.1s-6,3.8-8.6,5.5c-2.7,1.7-11.4,5.1-15.6,5.2h-.9s-.6,4.8-3.4,5c-2.8.3-6.4-1-8,.2-1.7,1.2-1.7,3.7-1.7,3.7,0,0-4.2-.7-5.3.7s-1.1,4.5-1.1,4.5c0,0-1.2-.4-1.9.3s-.7,3-.7,3c0,0-3.3-.3-4.4-.2l-1.3-3.6s6.3-5.3,6.6-8.4l-3-5.8,5-7.8s-2.5-4.6-3.9-12c-.2-.9-.4-1.8-.6-2.8-1.1-3.8-2.1-7.3-2.5-8.9-1.1-4.4-2.7-19.5-2.9-22.7-.3-3.2-1.7-33.8-2.1-44.9v-.6h-.2.2s-2.8-10-3.4-16.7c-1.1-3.9-2.3-7.9-3.4-11.6h-.7Z"/>
    <path id="NH" class="st0" d="M2384.4,369.1l-42.5-115.1-2.3,2.7-4-.2s-3.1,2.1-3.6,3.4-1.9,1.9-1.9,1.9l.9,8.2v1.3s-1.8,4.4,1,7.6c1.7,1.9,1.2,3.6.6,5-.4,1.6-.5,3.2-.1,5.3.8,1.9,2,4.2,2.7,5.3.3.5.4,1.6.5,2.8,1.6,5.7-.2,14.3-5.7,16.5h0c-.3.5-1.5.7-2.7.9-1.8.8-2.7,1.7-3.1,2.6,0,.7-.1,1.5-.1,2.5.3,2.7.9,6,.9,8.2v11c0,2.8.7,8.1,0,9.6-.2.4-.6.8-1.1,1.2,0,0-.1.2-.2.2-.3.3-.6.6-.9.8-.6.8-1.2,1.6-1.7,2.6v5c0,.3-.1.7-.3,1.1-.3,1.3-.8,2.5-1.6,3-.2.1-.3.2-.4.3-.3.3-.4.6-.4.6,0,0,.4.6.9,1.4,3.1,2.4,4.2,8.7,4.4,13.5v.3c.3,1.4.6,2.8.9,4.2.4,1.1,1,2.6,1.4,3.7.1.2.3.5.4.7v.2c.1.3.2.5.2.5,0,0-.7.9-1.2,1.8-.2.7-.4,1.5-.5,2.4,0,2,.3,6,.3,6v4.2s-.5-6.3-.4-9.5v-1.1c-.7,4.1-.4,9.9-.4,10.9l50.6-10.5,1.7-5.6h.3v-.4c.1,0,3.3-.5,3.3-.5h.5c0-.1,3.5-3.6,3.5-3.6l1.3-1.5,5.7.7-5.7-.7-1.3,1.5,1-1,6.6.8c.6-1,1.8-3.1,2-4-5.4,1.5-9.4-8.6-9.4-8.6h0Z"/>
    <path id="VT" class="st0" d="M2324.7,391.7v-.3c0-.4.2-.9.4-1.4.1-.3.2-.7.4-.9.3-.8.6-1.3.7-1.6-.6-.9-2-3.6-2.4-7.5-.2-1.1-.3-2.2-.4-3-.3-2-.6-4-.7-5.5,0-.4-.1-.7-.2-1.1,0-.2-.1-.4-.2-.6-.3-.8-1.1-2.1-1.9-3.4-.8-1-1.7-1.8-2.2-2.3-.4-.2-.8-.3-1.2-.3,0,0,3.7-1.9,3.7-7.4s.2-2.1.5-2.8v-1.1c0-.8,1-1.5,2.1-2.2.9-1.2,1.7-2.5,1.8-4.8v-.5c0-.5-.1-.8-.1-.8,0,0-.7-18.8-.8-24v-.2s-.3-.7-.1-1.6v-1.6c0-.5.4-.8.8-1.1.6-.9,1.6-1.1,3-1.1s.1,0,.2,0c.4-.2.8-.3,1.3-.4,0,0,.2,0,.3-.1.2-.2.5-.3.7-.5,1.1-1.5,4.3-5.5,4.7-7.7.2-1.7.8-5.4.8-8.2s0-.4-.1-.6c-.2-.6-.4-1.2-.7-1.7-.7-1.4-1.3-2.6-1.7-3.7-1.4-1.9-2.8-3.9-1.5-5.2,0-.7.5-1.5.9-2.5.2-2.1-.6-4.7-1.7-6.4-.2-.2-.3-.5-.4-.8-.8-1.9-.5-4.2-.4-5.1l-73,20.5s.7.9,1.5,2.4c-.5-1-.9-1.7-.9-1.7,0,0,.4.7.9,1.7,1.4,2.4,3.1,6.2,2.4,9.2,0,.6-.2,1.2-.4,1.8-.2,1-.3,2-.2,3,.1,1.5.6,2.9,1.2,4.3,1.6,2.8,4.1,5.7,5.7,9,2.8,6,2.1,9.2,1.8,15.6h0c0,5.8.7,9.8,1.8,13.1.1.3.3.7.4,1,.3.6.6,1.1.9,1.7.4.8.8,1.6,1.1,2.5,0,0,0,.2.1.2.8,1.4,1.2,3.7,1.3,6.2,0,.6.2,1.3.2,1.9.3,2,.3,3.9.1,5.6v.6s1.1-1.5,2.3-2.6c1.2-1.5,2.6-2.2,3.2,0,0,.2,0,.3.1.5.2.7.4,1.5.6,2.7h0c.7,2.8,2,6.9,3.5,11.6,1.4,3,2.6,5.4,2.7,8.7v1c.8,3,1.5,6,2.1,9.1.7,3.2,1.2,6.1,1.3,8.4h0l33.2-6.9c0-1-.3-6.9.4-10.9v-.2Z"/>
    <path id="WI" class="st0" d="M1699.6,379.2s-1.7-2.7-3.5-5.5c-.3-.5-.6-1-.9-1.5-.8-1.4-1.6-2.8-2-3.8-.7-1.6-.9-3.6-1-5.5-.3-2.5-.2-4.2-.2-4.9v-.7c-.2-2.4-1.2-6-2.4-8.4-.7-1.2-1.5-2.2-2.2-2.5-.4-.1-.9-.4-1.3-.8-2-1.2-4.6-3.1-5.8-6.4-1.5-4.1-4.7-5.8-6.6-5.8s-7.9-2.1-14.1-5.2-16.6-8.1-18.5-9.3c0,0-.3-.1-.4-.2-1.2-.2-1.9,0-1.9,0,0,0-1.3-.6-2.5-1.1-.7,0-1.3-.1-1.8-.1-1.5,0-4.1.5-5.1-1.2-.6-.3-.9-.7-.9-1.3s0-.2,0-.2c-1.6-1.2-5.5-.8-9.5-.7-1.4,0-2.9,0-4.3-.4-3.1-.2-5.3-1.6-7.1-2.9-.4-.3-.8-.6-1.2-.9-.4-.3-.7-.5-1.1-.7-1-.6-2.1-1.5-3.4-2.3-2.2-1.1-4.4-1.8-6.5-2.7-2.9-1.3-4.2-4.4-4.4-5.2-4.2.2-8.9-2.5-8.9-2.5,0,0-5.7,0-7.1.7s3.9-4.2,3.2-6.7c-.7-2.5-2.5-3.5-3.2-5-.7-1.4,1.1-5.7-5.3-5.3-6.4.3-8.1,4.2-11.7,5.7-3.5,1.4-4.6,1.8-7.4,1.8s-2.8,1.4-5.3,2.1-18,5.3-21.9,7.4l-3-.2-1.6,33.4s-3.2,4-8.2,9-13.8,4.2-13.8,4.2c3.7,7.7,1.9,19.4,3.7,21.5,1.9,2.1,3.5,9,.3,13.3-3.2,4.2-4.5,9.8-4.5,14.9s3.2,10.1,5.3,10.9c2.1.8,3.7,2.9,6.1,7.2,2.4,4.3,1.1,7.2,10.1,6.6,9-.5,13.8,8.8,14.9,12.5s3.7,4.8,11.4,7.4c7.7,2.7,7.4,5.8,7.2,8-.3,2.1-2.7,4.8,4.2,6.1,6.9,1.3,4.5,5.3,4,8s-.8,4.3.8,5.8c1.6,1.6,1.6,6.9,1.6,6.9,0,0,8.4,8,6.3,12.5h0c-.6,2.9-3.6,8.8-3.6,14.3s3.4,9,5.1,11.5c1.5,2,3,4,4.6,5.8,1.4,1.3,2.8,2.3,4.1,2.8,3,1.1,5.5,4.4,5.5,4.4l117.8-3h.5c0-1.2-.2-2.4-.2-3.5v-.2c-.4-3.6,2-14.4.8-20.5,0-.7-.3-1.3-.5-2-.8-2.8-1.8-6.1-2.7-9.6-.9-2.8-1.7-5.8-2.6-9.2-1.9-7.8-2.2-14.7-.7-21,.6-4.2,1.5-8.5,2.3-12.2.4-2.9.7-5.7,1-8,.6-4.4,1-8.4,3-10.9.4-.6.8-1,1.3-1.2,3.2-2.3,3.9-6.8,3.9-10.5s3.5-12.9,8.5-22.2c5-9.3,8.7-25.4,10.3-32.6,1-4.5-1.9-1.2-4.8,2.7-1.2,2.3-2.9,5.8-5.1,7.6l-.2.2c-1.5,2.1-3.5,4.8-4.8,8.7-.4,1.4-.7,2.7-.7,3.8,0,3.2-1.5,5.9-4.6,8.6-3.8,4.5-8.9,8.3-11.2,10.1-3.5,2.8-7.1,13.8-7.7,17.2-.3,1.6-1.2,3.2-2.4,3.9-.4.3-.9.5-1.5.5-3.7,0-4.4-7.7-1.5-10.7.7-.8,1.6-1.4,2.5-2.1.9-1,1.9-1.7,2.6-2.2,1.8-1.1,2.8-3.3,3.3-5.6,0-1,.3-2,.5-2.9v-.5c.2-3.1,4.1-8.5,7.1-11.8,1.4-2.2,2.5-4.5,2-5.9h0c0-.2,0-.3-.2-.4-1.5-1.5-2.7-3-3.6-4.6,1.7,2.8,3.5,5.5,3.5,5.5l-.2-.3Z"/>
    <path id="GU" class="st0" d="M135.6,1252.6c-.6,0-1.2,0-1.8.2-.4,0-.6-.7-1.3-.5-1.9.5-3,2.1-4.9,2.5h-8c-.5,0-.7-.5-1.4-.5-.7.6-1.6,1.3-2.6,1.5,0-.3-.2-.4-.2-.9.3-.3.6-.6.9-.9v-1.5c-.2,0-.4,0-.7,0-.8.8-1.9-.2-2.8,0-1.9.3-3.6-.3-5,.3-.4,0-.5-.4-1.1-.5-.5.4-1,.7-1.8.8-1-.9-1.9-.6-3.4-.9-5.5-.9-7,2.6-10.1,4.6-.8.3-1.6.7-2.4,1-.9.6-.8,2.1-2,2.4-.3-.4-.4-.4-.5-1,.9-1,1.8-2,2.7-3,.8-.4,1.6-.8,2.4-1.2,1.8-1.3,3-3.4,5.5-4.1h18.7c.6,0,1-.9,1.9-.7,2.1.5,4.1,2.8,7.4,2.1,3.6-.8,6.9-3.9,10.4-3.5v.2c.2.4,0,.8.1,1.3.7.4,1.7,1.6,2.5,1.4.7-.5,1.3-1,2-1.5,3-1,10.6-2.4,10.5-5.9-.7-.9,0-2.4,1-2.6h.4c2.6,4,8.2,1.9,11.3-.2.4-.6.9-1.2,1.3-1.9.8-.5,2,0,2.6-.2.2,0,.2,0,.3-.2.2-.5,0-.9.5-1.2,1.1-.5,1.8.9,2.3,1.4,2.7-.4,8.1.7,10.4,0h4.6c1-.5,1.2-1.9,2.5-1.8.3.6.7,2.3,1.2,2.6.8.3,4.9-.6,5.8-.9.8-.2,1.5-.4,2.3-.5,2-.8,6-4.7,6.6-6.8.4-1.3,0-3-.2-3.9-.7-.3-3.2-.7-3.6-1.4,0-.6,0-1.2-.1-1.9-.7-3.1,1.1-4.5,3-5.9.4-.4.8-.8,1.2-1.2.9-.3,1.8,0,2.7-.4,1.1-.4,3.7-1.4,5.3-.5.9.7,1.9,1.5,2.8,2.2,3.3,0,7.4-1.6,8.9-3.5.5-.8.9-1.5,1.4-2.3,1.1-1.5,2.8-3.8,2.7-5.9-.8-.6-1.7-.9-2.3-1.6,0-1,.3-1.7.4-2.4-.2-1.4-.4-2.8-.7-4.2,0-.4,0-.8.1-1.2-.2-1.3-.8-2-.9-3.4,2-2,3-3,4.5-5.6.3-.5.1-1.3.4-1.9.6-1,1.7-1.6,2.2-3,.5-1.5-.1-3.6.1-4.9,3.3-2.1,5.9-4.4,7.7-8,.6-1.3,0-1.6.1-2.4.3-1.7,4.7-7,6.2-7.3.4.4.8.3,1.3,0,0,0,.1-.2.2-.3,0-1-.7-1.4-.5-2.3.4-1.2.9-2.3,1.3-3.5.6-.6,1.2-1.2,1.8-1.8.1-.5.2-.9.3-1.4.7-1.8,1.7-3.6,2-5.9.1-1-.7-1.5-.9-2.2-.3-1.4.7-3.1.4-4.8,0-.9-.1-1.8-.2-2.6-.3-1.5-1.5-5.9-.8-8.2.2-.3.4-.6.7-.9.6-1.6-.3-3.9.5-5.1,2.3-3.5,5.6-6.1,7.8-9.7,1.5-2.5,2.1-5.8,3.6-8.2.9-1.5,4.7-4.1,6.4-4.8,1.3-.6,3.2.2,4.3.5,3.4,1.1,5.4,2.6,7.9,4.5.9.7,2,1,3.1,1.6,1,.6,1.6,2.3,2.3,3.2,2.1,2.8,4.4,5.5,6.5,8.3.8.7,1.7,1.3,2.5,2,3.5,4.5,9.4,9.3,9.2,16.9.5.4,1,.9,1.4,1.3,4.1,2.5,10.2,3.4,15.4,4.6,1.8.4,2.8-.7,4.1-1,1.3-.3,2.5.4,3.4.7,1.1,0,2.3,0,3.4,0,1.4,0,2.9.7,4.5.3,4-.8,6.1-.9,8.3,1.8,0,4.2-3.1,6.5-4.1,10.2-.2,1.9-.4,3.9-.7,5.8-.8,1.3-1.6,2.6-2.4,3.9-1.2,1.1-2.5,2.3-3.7,3.4-.8.5-1.8.6-2,1.6-.4.7-1.7,6-1.3,7.2.3,1.2,1.5,2.6,1,4.7-.2.9-.9,1.7-1.3,2.5-.4,1.1-.8,2.1-1.2,3.2-.8,1.3-2,2.7-2.6,4.2-.6,1.4-.2,2.8-.7,4.5-.5,1.8-2,3.6-2.7,5.1-.9,1.9-1.1,3.7-2.3,5.1-.6.8-2,1.8-3.1,2.1-.7,0-1.4,0-2.1,0-.3.3-.6.6-.9.9-.7.2-1.5.4-2.2.7-.4.4-.9.7-1.3,1.1-.9.3-1.7-.3-2.5,0-.7.2-2,.8-2.5,1.2-.3.2-.4.7-.8.9h-2.5c-1.3.9-2.6,1.9-3.9,2.8-.4.6-.9,1.2-1.3,1.9-1.2.8-2.7-.5-3.6,1.2s.5,4,.2,5.6c-.3,1.3-3.6,4.9-4.6,5.6-.7.5-1.7.8-2.8.8s-.7,0-1.1,0c-2.6.8-6.1,2.3-7.9,4.1-.3.7-.7,1.4-1,2.1-1.1,1.1-2.3,2.1-3.4,3.2-.4.7-.7,1.4-1.1,2.1-.5.3-1,.6-1.5.9-.4.8-.9,1.5-1.3,2.3-.9.7-1.8,1.3-2.6,2-1,1.5-2,2.9-3.1,4.4-1.7,1-3.4,1.3-5.5,2-.5.4-1,.8-1.4,1.2-.7.3-1.7,0-2.2.5-1.2,1.1-2.2,2.6-3.2,4.1-.8.7-1.6,1.4-2.4,2.1-.5.8-.4,1.8-.9,2.5-.6.9-1.8,2.3-2.7,2.8-.4,0-.7.2-1.1.3-.3.5-.7,1-1,1.5-1.5,1.2-4.8,0-6.6,1.3-.3.4-.6.9-.9,1.3-1.7,2-4.3,3.7-5.5,6.1-.7,1.4-.5,3.3-1.9,4.1-1.8,1.1-4.8.3-6.4-.2-.5,0-1.9-.3-1.9-.3-1.7.9-4,1.8-6,2.4-1.3.4-2.7,0-3.3,1.1-.4.6-.8,2.9-.3,3.8.6,1.3,2.6,1.6,3.2,2.5,0,.5,0,1,.1,1.5-.9.6-1.1,1.6-1.9,2.2-.6.4-1.3.3-1.8.9-.3.5-.2,1-.4,1.6-.5.8-.9,1.7-1.4,2.5-.2.9.7,2.2.1,3.3-.8,1.4-2.2,1.8-3.1,2.8-.3.4-.5.8-.8,1.2-.4.3-1,0-1.6.2-.9.2-1.5.8-2.1,1.3,0,0,0,0,.1.2.5.6,1.3.8,1.8,1.4.2.4.4.8.5,1.2.7.4,1.3.8,2,1.2v.8c-1,.7-1.6,1.9-2,3.3v2c-.6,1.5-1.2,2.9-1.8,4.4,0,1.1,0,2.3-.1,3.4-.6.8-1.2,1.5-1.8,2.3-.5,2.1,1.2,4.3,1.5,5.9.4,1.6-.5,3.3-.2,4.7.1,1.1.3,2.3.4,3.4-.2,1-.8,3.4-.5,4.4.3.6.6,1.2.9,1.8.6,2-1.1,3.8-2.7,3.8-1-.7-3.2-.9-4.4,0,0,0,0,.3-.1.4.4.3.4.7,1.1.8,1.2-.6,4.1,1.1,4.7,1.6-.4,2.1.9,3.5,1.3,4.9,0,.9,0,1.9-.1,2.8.2.9.7,2.7.3,4.1-.3,1-.6,1.9-.9,2.8.1,1.1.3,2.1.4,3.2-.1.8-.3,1.6-.4,2.4.1.9,1,1.9.8,3.1-.4,2.6-1.5,3.8-1.5,6.8-1.1,1.2-2.3,2.3-3.4,3.5-.6.5-1.5.7-1.9,1.3-1.2,2,1.1,4.4-1.5,6.2-.3.2-.8.8-1.5.5-.3,0-.3-.3-.8-.4,0,0,0,.3-.1.4.6.6.8,2,.2,2.8-.3.7-3.3,2.9-4.4,3-.8-.8-2-2.1-3.3-2.4-.1.3-.2.3-.2.8.7.8,1.3,1.7,2,2.5-.4,1.6-1.9,2.5-3.4,2.8h-1.2c-.3.3-.5.5-.8.8-1.1.6-2.7.9-4.3.9q-.1.2-.2.5c1.1.6,2.2,0,3.1.4,1.2.8,0,3.6-1.4,3.6-.5-.4-1.1-.3-1.8-.2-.2.3-.4.5-.7.8,0,.7.1,1.4.2,2.1-1.2,1-2.2,1.9-3,3.3-.5.9-.2,2-1,2.6-1.3,1-4.1.8-4.3,3v1.4c-.3.2-.4.3-1,.3h-3.2c-.6-1-1.2-3.4-2.7-3.4-.5.4-2.9,2.2-3.3,2.4-.9.4-1.8,0-2.7.3-1.1.3-2.1.6-3.2.9-1.4.3-5.8-.9-6.8-1.4-1.2-.6-2.3-1.7-3.7-2.2-1.2-.5-2.7,0-3.8-.4-1.3-.6-1.2-2.7-2.3-3.3h-.7c-.2.4-.3.8-.7,1-.7.3-2.2-.3-3-.4h-1.8c-2.2-.6-3.4-3.2-3.3-6.2-.6-.2-1.2-.4-1.8-.7-.8-.6-1.6-1.7-2.5-2.1-.4,0-.9,0-1.3-.2-1.6-.6-2.7-1.8-3.3-3.5-.8-2.5,1-3.3.5-5.5-.2-1-.9-1.3-1.2-2-.5-1.1,0-3.1.3-4.1-2.1-1.3-3.7-2.1-3.6-5.3,0-1,0-1.8.4-2.6.6-1.1,2.9-1.3,3.2-2.7-1.7-.9-4.3-1.1-4.4-3.6.3-.9.5-1.8.8-2.6-2-1.2-1.3-.8-2.5-2.6-.3-.4-.8-.6-1-1.1-.7-2.3,0-3.3,2.3-3.2,0,0,.3,0,.4-.2.2-.4.4-.5.4-1.1-1.2-.8-2.8-1.2-4.1-2.1-.5-.8-1-1.5-1.5-2.3,0-2,1.6-3,1.3-4.9-.4-.2-1.5-.4-1.9-.8-.3-.6,0-1.6-.4-2.3-.3-.6-2.2-3.2-2.8-3.3-.3.2-.5,0-.9,0-.2-.7-.2-1.2-1.1-1.2-1.1.5-5.4-1.8-5.7-2.5,0-.2,0-.4,0-.5.9-.6,2.6-.9,3.2-1.8.8-1.1,1.1-2.2,1.8-3.5.4-.5.9-.9,1.3-1.4.3-.9.2-1.6.5-2.5.8-2.1,2.4-4.3,3.3-6.4.5-1.1.3-2.3.8-3.6.3-.4.5-.8.8-1.2.4-.9.5-2.1.8-2.8.3-.9.6-2.5.3-3.5-.2-.7-.9-1.7-.4-2.7.3-.9,1.1-1.4,1.5-2.1,0-.4,0-.7.2-1.1.3-.9,1-1.4,1.4-2.1,0-.4,0-.7.2-1.1.5-1.1,2.4-1.5,3.1-2.6s.5-2.8,1.1-4.1c.5-1,1.8-2.8,1.3-4.7-.2-.7-.4-1.3-.5-2-.4-.5-.8-.5-1-1.3.5-.9-.4-2.6-.7-3.3-1.1-2.4-2-4.2-4.9-4.8-2.4-.5-4.3,1.4-5.3,1.2-.5-.2-.5-.3-.5-.9.5-.5,1-.6,1-1.6-.2-.4-.2-.7-.5-1-.9-.5-1.5.2-2.5,0-.9-.3-2.8-1.5-3.1-2.4,0-1.4.2-2.8.3-4.2-.3-.4-.7-.9-1-1.3-.3-.9-.7-1.8-1-2.7-3-2.7-8.1-3-11.4-5.5-1.4-1.1-1.7-2.4-2.5-4.2-.3-.4-.6-.7-.9-1.1,0-.8-.3-1.7-.4-2.5.3-.3.6-.5.9-.8.9,0,1.2.3,1.8.4.4,0,.9-.2,1.3-.3,1.3-.2,3.1.6,3.8,1.1.8.5,1,2,2.1,2.2,1.3.6,3.1.6,4.5,1,1.4.3,3,1.5,5.1,1,.9-.3,1.9-.7,2.8-1,.5,0,1,0,1.5,0,1.5,0,2.9-.2,4.4-.3.4,0,.7,0,1.1.2.5-.2,1-.4,1.4-.7,1.4-.4,5,1,5.4,1.8.4.5.4,1.8.2,2.6-1,.4-2.2.7-2.6,1.6h0c.6.3,1.4.4,1.9.8-.5,1.2-1.9,2.5-1.8,3.8.7.2,1.7.6,1.8,1.5-.4.3-.9.8-1.1,1.4,0,.6,3.2,6.2,3.8,6.5.9.5,2.8.2,4.1.2,0,0,0-.3,0-.4h0c-.9,0-1.7-.2-2-.9-.2-.5,0-1.9.4-2.4,1.1-1.7,2.8-3.1,3.7-5,.2-.5,0-4.3-.4-5-.3-.3-.5,0-1-.3-1-.5-.2-1-2.2-1-.6.4-1.5.4-2.5.4-.5-.7-1.1-4.6.2-5.1.5,0,1.1-.3,1.6-.4,0,0,0,0,0-.2-.2-.6-.4-.8-.4-1.6.2,0,.4,0,.7,0,.7.6,1.7.3,2.7.2.2.3.5,1.3.8,1.5.7.5,1.5.3,2,.9.3.7,0,1.3.7,1.6h.1c.5-.4,1.8-1.3,2.1-1.9v-1c.8-2.9.8-3.3-.2-5.8-.4-1,.4-1.9.4-3-2.8-1.9-4.7,0-6.2,1.6-.7,0-1.4,0-2.1,0-1.3-.6-.8-1.6-1.6-2.2,0,0-.3,0-.4,0,0,0,0,.2-.2.3.3.8.6,1.4.4,2.5-.5.4-.5.6-1.4.7-.6-.9-.4-2.9,0-4.2,1.8-1.2,4.2-.8,6.9-.8.9,0,1.8-.2,2.6-.3,1,.2,2,.4,3.1.7.1-.2.3-.4.4-.5-.1-.4-.2-.9-.3-1.3-.5-.3-1-.3-1.1-1.1.3-.2.3-.3.8-.3h1c.2.4.3.6.8.8.5-.6,1.7-.7,1.9-1.5l.6-.2Z"/>
    <path id="AK" class="st0" d="M653.9,1159.3c-.1,0-.2,0-.4,0-4.2.7-3.3,4.2-7.2,4.6-3.9.3-10.8,6.8-16.3,6.8s-1.3-1.3-3.9-5.2-3.6-2.6-9.1.6c-5.5,3.3-2.9,2.6-12.1,3.6-9.1,1-28.7,5.5-34.5,12.7-5.9,7.2-2.3,10.7-4.9,10.7s-4.9,3.6-7.5,3.9-7.5,7.5-9.1,2.9-5.5-5.2-7.2-4.9c-1.6.3-3.6-3.6-8.5-3.6s-3.6,7.5-6.8,11.7c-3.2,4.2-6.5,4.6-3.6,9.8s18.6,13.4,16.6,22.5-3.6,13.4-3.6,13.4l7.8,7.8,2-2.9s2.3-1,4.6,2.9,11.4,4.9,8.8,7.5-12.1-5.5-13,0c-1,5.5-1,16,6.2,16s8.8,5.2,5.5,11.4-3.6,4.9-3.6-1-2.3-6.5-5.2-3.6-8.1,4.6-8.5.3c-.3-4.2,2.9-2.6-5.2-6.5s-13-5.9-9.1-11.1,4.9-11.1,4.9-11.1l-33.2-.6s-6.5,1.9-8.5,2.6c-2,.6-15.6,1.6-17.9,1.9s-5.5,7.2,3.3,12.7,13.4,11.1,13.4,11.1c0,0-10.4-2.3-12.4-2.3s0,18.6,0,18.6c0,0,5.5,13,14,13s13,3.6,13,3.6c0,0,5.2,11.7,8.1,8.8l2.9-2.9s2.6,7.2,3.3,5.5c.7-1.6,3.6-6.5,3.6-6.5,0,0,3.6-3.6,4.6-3.6s4.2-1.6,4.2-1.6l8.8-5.9s3.6-.3,3.6,4.6-5.2,5.2-5.2,5.2c0,0-1.3,5.2-6.5,6.2s-5.9,7.2-.3,4.6c5.5-2.6,7.5.3,5.9,4.6-1.6,4.2-6.8,7.2-3.9,10.1,2.9,2.9,1.6,7.8-4.9,10.1s-14,5.5-18.6,1.6c-4.6-3.9-6.8-5.2-11.4-1.6s-7.8,2.6-7.8,2.6l-2.3,31.3s-4.2-17.6-8.8-23.5-7.8-7.5-7.8-4.2-1.6,3.9-2.3,6.2c-.7,2.3-4.6,4.6-4.6,1s2-5.5-1.3-5.5-4.9,5.9-4.9,5.9c0,0-1.6,4.9-3.3,1-1.6-3.9-4.2-7.5-6.2-3.6s-4.9,4.9-7.2,4.2c-2.3-.6-5.2-1.6-5.2,1.6s1.6,6.2-1.3,6.5,1.3,6.2,3.6,6.5-.3,4.2-.3,4.2c0,0,0,1.3,2,3.9s2.9,5.5,6.5,10.1,6.2,7.8,3.3,9.1-5.9.6-5.9.6c0,0,2.3,3.3-2,2.6-4.2-.6-9.8-3.6-9.1.7.6,4.2,2.9,9.1,6.5,9.5,3.6.3,5.9-2.3,8.1-2.3s5.9,3.9,5.9,6.2-3.9,3.3-5.5,3.3,0,3.6-1.6,5.9-3.9,3.9-1,4.9,6.5,2.6,8.8,4.9,4.9,5.2,8.8,2.3,10.4-3.3,10.4-4.2v5.2s-12.1,14-5.5,21.2c0,0-4.6,1-4.9,4.9s-4.6,5.9-4.6,5.9c0,0-3.9-1-5.9-1s-4.9,3.6,0,3.9l4.9.3s5.2,1.3,7.5,1.3,4.6,1.3,4.6,1.3c0,0-.6-7.2,3.6-7.2s6.2.3,8.1-1.6c2-2,3.6-1.6,3.6-1.6,0,0,0,8.5,5.2,9.5s13,9.4,12.1,16.6c-1,7.2,4.6,13,5.2,4.2.7-8.8,0-12,4.2-13.7,4.2-1.6,1.3.6,1.3.6,0,0-3.3,12.7,2,12.7s7.2-5.2,9.1-5.2,2.9-.7,6.2-3.3,11.7-5.2,13.4-5.2.2,0,.2,0h0s0,0,0,0c-.1.3-10.1,2.5-11.3,9.1-1.3,7.2-6.2,9.1-9.4,9.8-3.3.6.3,4.2-1,6.2-1.3,1.9-5.9-.3-7.8,2.6-2,2.9-6.2,6.5-6.2,6.5l-2.6,9.8s-4.2-2.6-5.2-1-8.1,6.8-12.7,7.8c-4.5,1-3,6-1.1,6.5-1.8-.2-9.5-.9-16.5,1.6-8.8,3.3-11.1,9.8-13.4,9.8h-4.9s-6.2-6.2-11.4-4.2c-5.2,1.9-1.6,5.5-1.6,5.5,0,0-2-1-10.7.6-8.8,1.6-11.1,2.9-9.4,8.1,1.6,5.2,4.6,9.5,7.8,4.2s8.5-8.8,9.1-6.8c.7,2-5.2,7.8,2.9,7.8s8.5-2.9,8.5-2.9c0,0,2.9,1,5.9,1s10.7-7.8,11.1-3.9c.3,3.9-2.9,10.7,0,10.7s6.2-8.2,6.2-8.2c0,0,1-2.3,3.6-1s12.4-1.3,16-1.3,8.5-1.9,4.9-4.9c-3.6-2.9-5.2-7.5-1-6.8,4.2.6,5.5,5.2,7.8,4.2s3.6-2.3,3.6-2.3c0,0,3.3,1.6,3.6.3.3-1.3.6-5.5.6-5.5,0,0,3.6-1,4.6,1.3,1,2.3,3.3,2.6,3.3,2.6,0,0,1.6-4.2,3.9-4.6,2.3-.3,2-4.2,2-4.2l4.9-.7,3.3-4.6,1.3,1.6,9.8-3.3.6,3.3s4.2-10.1-.3-10.1-7.2-4.6-.3-4.6,10.1-1.3,7.2,2.3-2,8.1,1.3,4.9c3.3-3.3,7.5-10.4,7.5-10.4,0,0,.7,9.1,4.6,7.2,3.9-2,2.3-7.2,2.3-7.2,0,0,2-4.6,4.9-4.2,2.9.3,4.2-2.6,6.2-2.6s4.9-.7,4.9-.7c0,0,2.9,1,3.3-1.6.3-2.6,1.3-4.9,4.9-4.9s2.6-3.6-2.6-3.6-1.6-4.2-4.9-6.5-3.9-4.2-3.3-8.1,6.2-2.3,6.2-5.2,3.3-5.5,6.8-4.6c3.6,1,15.6,0,15.6,0,0,0-.7-2.9,1-7.2,1.6-4.2,5.2-6.5,7.5-10.7,2.3-4.2,3.6-9.5,9.1-7.8,5.5,1.6,3.3-.3,6.8-3.3,3.6-2.9,7.2-.6,11.4-4.6,4.2-3.9,7.2-5.2,7.2-5.2l-.6,5.5s11.1-7.2,13-4.6c2,2.6-9.5,10.4-9.5,10.4l4.6,2.3s11.7,6.8,8.5,11.1c-3.3,4.2-4.6,2.6-8.5-3.3s-7.5-3.9-7.5-3.9c0,0-4.6-3.9-6.5-3.9s-2.3,2.6-6.8,3.3c-4.6.6-7.5,2.6-7.5,2.6,0,0,2.9,2.6-.3,4.9-3.3,2.3-8.8,8.1-12.1,18.2s3.2,6.8,5.5,2.9,5.2-6.8,8.1-2.6-2.3,9.4-8.8,10.1-8.8,1-8.8,1l-2.9,6.8,7.2,1.3,6.5-.6,4.2,4.6s3.6-1.3,5.5-5.2c2-3.9,2.9-10.1,2.9-10.1,0,0,9.1-5.9,6.8-1.3s-1,6.2-1,6.2l5.9-7.5s2.6,7.2,8.1-2l4.6-1.3s-.3,3.9,2.3,3.9h6.5s3.3-3.6,5.9-3.9,2.3-4.2.7-5.9c-1.6-1.6,1.6-3.3,2.3-2s10.4,1.6,3.6-3.9-9.8-8.5-9.8-8.5l14.3-10.1s-6.2,10.1-1.6,10.1,6.5-2.9,6.5-2.9c0,0,2.3,2.3,4.6,2.3s7.8-9.4,10.1-7.8-3.3,6.5-2,6.8c1.3.3,13-1.9,13.4.7.3,2.6-4.6,2.6-7.5,4.2s-9.4,0-11.7,5.2c0,0,2.6-.3,6.8,0s10.4,2.6,11.4,5.2.7,7.5,4.9,7.8c4.2.3,7.2.3,7.2,4.2s1,5.2,7.2,5.2,14.3-2.3,17.6-.6c3.3,1.6,0,5.5,8.1,4.2,8.1-1.3,6.5,3.3,12.7,3.3s4.9,3.3,10.4,3.3,2,3.3,5.2,6.8c3.3,3.6,7.5,4.6,7.5,4.6,0,0-1,1,6.2,5.2,7.2,4.2,9.1,3.6,9.1,3.6,0,0-3.3,2.9,1.3,2.9s9.5-1.6,10.1,4.6c.7,6.2,4.2,10.4,4.2,10.4l8.8,8.5s4.6,3.3,4.9,1,6.2-1.3,6.2-1.3c0,0,1.6-1,4.9-.7,3.2.3,5.5,1,9.8,3.3,4.2,2.3,3.6.3.3-6.5s-2.9-6.2-3.6-13-2.9-11.7.7-11.7,4.9,8.5,4.9,8.5c0,0,8.1,19.2,15.3,24.4,7.2,5.2,9.8,14,9.8,17.9s2.3,9.5,4.2,9.5,4.2-1.3,5.2,0,14.3,3.6,14.3,3.6c0,0-3.9,9.1,1.6,13s7.5,12.1,7.5,12.1c0,0-6.8,9.8-3.3,9.8s7.8-7.8,12.4-5.9,5.5,8.5,5.5,11.7,2.3,7.8,2.3,7.8c0,0,1,1.6,2,1.6s5.5,1.3,5.5,1.3c0,0,2.9-7.8,6.2-7.8,0,0-4.6-13.7-11.1-19.5-6.5-5.9-8.8-5.9-9.1-12.7-.3-6.8-1-16.6-13.7-16.6s-12.4-7.8-15.6-16c-3.3-8.1-6.5-15.3-13.7-21.8s-9.4-10.8-13-16.9c-3.6-6.2-10.8-13-21.2-12.7s-8.5,1-11.7,8.2c-3.3,7.2-5.9,15.3-9.1,8.5l-14.7-14s1.3-2.6-1-7.5-2-3.9-1.6-7.2c.3-3.3-6.5-3.9-9.1-3.3s-8.8,0-12.7-2.3c-3.9-2.3-4.6-1.3-6.8,0-2.3,1.3-8.5-4.6-10.4-3.9l-.6.3,16.3-271.7s-11.7-10.4-19.5-10.4c0,0,6.5-7.8,4.6-9.1-2-1.3-9.1,1.3-12.4,3.9s-3.9,5.2-9.1,2c-5.2-3.3-19.5-4.6-25.4-4.6l-2.6-5.2-3.9,1.9s-2.6-7.2-7.2-11.1-8.5-3.9-13,.6-6.5-.6-6.5-.6c0,0-2-3.3-9.1-2.6-7.2.7,4.6-12.4-5.9-12.4s-18.9.3-16.9-6.2c1.9-6.5,3.6-11.4,4.6-11.4h0c-.2,0-9.7-.9-14.1,1.6,0,0,4.6-4.9.6-6.5-3.8-1.6-.5-7.4-4.2-7.2h0ZM406.3,1288.9s-10.2,3-11.7,8.6-.8,7.7-2.2,7.9c-1.4,0,.3,2.9,3.9,2.4s4.4-4.5,7.8-.5,7.5,5,8.1,10.2c.6,5.2.7,13.1,2.1,11s2.2-5.3,3.9-5.2,0,1.5,3,3.6,11.1,2.3,7.9-1c-3.2-3.4-2.9-8-2.9-8,0,0-.7.6-2.9-1.3s-1.6-4.1-2.1-5c-.5-.9-1.4-.9-1.5-.9.1,0,1-.2,1.2-3.2.1-3.2-1.3-6-2-6.8s-2.9-2.1-5-.7-5.7,3.6-7.3,0c-1.6-3.5-.5-5,.2-6.7.7-1.7-.6-4.4-.6-4.4h0ZM335.4,1350.1c-1,0-1.5.8-.5,2h0c2.4,2.9,3.7,3.5,1.1,6.9s-3.4,7.2-1.2,10,7.9,4.6,6.2,7.6c-1.6,2.9,2.7,4.5,5,1.4,2.2-3.1,2.6-5.5-.7-8.7-3.3-3.2-9-5.2-6.2-8.7,2.7-3.5.6-8-1.4-9.7-.8-.6-1.5-.8-2.2-.8ZM419.6,1413.9c-.4,0-.8,0-1.3.1-3.6.7-2.7,2.8-7,2.9-4.3,0-9.3-1-9.6.9s4.4,3.7,5.9,3.8c1.5,0,3.6.2,2,2.2s-5.1,1.7-1.7,5.4c3.3,3.7,3.7,6.4,5.8,5,2.2-1.4.6-3.6,5.3-3.7,4.7,0,13.1,1.8,7.8-3.8h0c-.3-.4-2.5-2.3-2.5-6.7s-1.8-6.1-4.7-6.1ZM325.2,1459.5c-.7,0-1.4.2-2.1.7-2.1,1.7-6.9,3.1-11,3.1s0,3.8,2.9,5.5h0s1.7,4.7,4.5,2.9,6.6-3.7,8.7-4.7,4.5-4,2-5.5c-1.7-1-3.4-2-4.9-2ZM321,1492c0,0-.2,0-.3,0-.4,0-.7.1-1,.4-1.9,1.4-3.9,2.6-.7,4.9,3.2,2.4,7.1,3.5,7.9,2.7.8-.8,3.9-3.2-1.6-5.8h0l-.4-.2c-.8-.5-2.5-1.9-4-2h0ZM64.7,1494.6l-15.9.2,2.4,3h0c.9,0,6.1,1.6,6.1,1.6l3.9.6,2.8-2.4.6-3ZM68.4,1516.1l-.4,1.3,3,15.4,4.8-.8-7.4-15.9ZM87.7,1518.2l-2.2,4.6h0c1.3,0,5.2,3,5.2,3l3-4.1-6.1-3.5ZM591.3,1534.1c-.8,0-1.6.1-2.4.2l-4.6,5.9s-3.9,5.9,2.8,5,9.8-4.3,12-2.6c2.1,1.6,3.5-8.9-7.8-8.5ZM573.8,1544.6h0c-1.4,0-3.2.8-4.9,1.8-3.3,2,2.8,5,5.2,7.4s1.8,4.4-3,5.7c-4.7,1.2-2.8-1.6-3-5.7s-6-1.5-8-.4c-2,1-3,3-7.6,5.6-4.5,2.6-.4,2.8-.4,2.8l6.5,5.6s.5.2.5.3h0c0,0-.6-.1-2.2-.7-3.7-1.3-8.6,0-4.3,6.1,4,5.6,6.3-2.1,6.7-3.3,0-.4,0-.9,1.7,1.7,2.1,3.5-4.4,6.7-3.3,7.6,1.1.8,6.7-1.8,9.1-4.6,2.4-2.8,2.4-5.2,5.4-3.9,3.1,1.3-1.3,3.2-.2,5.4,1.1,2.2,7.8-3.5,10.4-4.1,2.6-.7-.7-5.9-.7-5.9l4.3-2.2s4.5,5.2,8,2.8c3.5-2.4-3.7-5.9-3.7-5.9,0,0,7.8,3,8-2s-8.7-2.6-8.7-2.6c0,0,.5-3.3-1.7-5.7s-6.7.4-7.8.2c-1-.2-4.7.2-4.3-3.5.2-1.8-.7-2.5-2-2.4h0ZM116.7,1545.5l.9,6.3s-3.4.9-3.6,1.1h0s0,0,0,0c.6,0,7.8,5.2,7.8,5.2l2.8.9-1.3-5,.2-2.8h0c0-.1-6.9-5.7-6.9-5.7ZM131.9,1556.7v.9l-2.9,1.9,2.9,2.2,4.5-2.8-3.7-1.5-.8-.7ZM141.8,1561.4c-1.2,0-2.6.3-3,.8-.9.9-7.2,6.3-7.2,6.3l11.7,1.5.7-7.4c.1-.8-1-1.2-2.2-1.2ZM152.4,1563c-.6,0-1.3,0-2.1.3l-.2,3.9,4.3.2s2-4.3-2-4.4ZM559.3,1569.5s0,0,0,.2c0,.1,0,.2,0,.2v-.4ZM854.7,1571.4c-2,0-4.8.9-4.7,2.6.2,2.6-7.6,2-6.3,5.4,1.3,3.5,1.3.9,1.3.9h0c0,0,5.4,4.4,5.4,4.4l5.9,10s2.6-4.1,5.6-2.4,6.3-3,3.9-5.9c-2.4-2.8-4.6-2.6-6.1-5.7-1.5-3-3.3-8-3.3-8.9s-.4-.4-1-.4c-.2,0-.5,0-.8,0h0ZM871.7,1572.7c-.4,0-.7,0-1.1,0h0l3.3,27.8s1.5,3.7,2.8,3.7,2.8-3.7,2.8-3.7l.7-5.9s7.8-1.1,5.9-7.8c-1.9-6.3-8.8-14.1-14.3-14.2h0ZM164.6,1573.1c-1.9,0-3.8.6-2.7,2.7.7,1.5,10.6,7.2,10.6,7.2l5-1.3,5.9,2.4,3.3-1.7,3-.6s-3-8.5-6.5-7-1.1,3-1.1,3l-5.2.2-9.1-4.6s-1.1-.2-2.4-.3c-.3,0-.5,0-.8,0h0ZM395.3,1573.9s-5.4,1.1-10.2,1.5-10.9.4-10.9.4c0,0-3,3.9,1.3,5.2s5.2.9,5.2.9c0,0,2.8,7.8,9.8,7.8l2.2-.6s-.9-5.9,2-6.9c2.8-1.1.6-8.3.6-8.3ZM399.6,1574.2h0c-1.5,0-1.6,1.5-.6,3.4,1.5,2.8,2.6,3,2.2,5.2s3.5,4.8,5.6,3.9c2.2-.9-.9-4.1,2.4-4.1s6.1-5.2,1.7-7.2c-1.5-.7-2.1-.9-2.2-.9,0,.1,1.3.7,1.3.7h0c-.9,0-3.5,2.2-7.6,0-1.3-.7-2.2-1-2.9-1h0ZM367.4,1577.8c-2.8-.1-6.7,5.4-3.4,7.4,3.9,2.4,3.9,3.5,3.7,5.2-.2,1.7-.6,3.9,5,1.7,5.7-2.2,8-8.9,2-9.3,0,0-3.3-1.3-5.9-4.3-.4-.5-.9-.7-1.4-.7ZM549.9,1578.3c-1,0-1.7.1-1.7.1-.9,0-11.3,5.9-3.9,7.6s10.4-3.9,9.8-6.1c-.4-1.4-2.6-1.6-4.2-1.6ZM326.7,1584.2c-1.8,0-4.5.9-6.9,2.4-4.3,2.6,1.1,3.7,1.1,3.7,0,0-.2.8-3,1.5-2.8.6-.2,3.4.7,5.6.9,2.1-1.7,4.3-1.7,4.3,0,0,.4-2.8-1.3-4.1-1.8-1.3-6.5-.4-8.7,1.1-2.1,1.5,1.3,3.4,3.3,4.3,1.9.9,4.5.5,6.9.7s2.4-1.1,4.1-2c1.8-.9,7-1.9,7.2-3.9s5-4.6,5-4.6h-.2c1.7-5.5-3.9-2.9-3.9-2.9,0,0-.2-1.4-.2-4.3s-1-1.8-2.4-1.8h0ZM349.2,1585.1s-3.2,1.5-4.1,3.9c-.8,2.4.2,3.3,4.8,3.3s3.7-1.1,3.7-4.1-4.3-3-4.3-3h0ZM342.5,1585.4c-6.7,0-5.6,3.3-5.6,3.3,0,0-1.7,3.9,3.5,3.9s5.2-3,3-6.5l-.9-.6h0ZM185.9,1587.5c-.1,0-.2,0-.1.1.4.7,6.7,5.4,12.6,8.9s-6.5-7.4-6.5-7.4c0,0-5-1.6-6-1.6ZM304.1,1589.6c-.3,0-.7,0-1,0-2.6.4-1.1,3.7-5.6,3.7s-3.7.9-8,2.8-4.3,4.8-11.7,5.2c-7.4.5-2.9,3.1,1.7,3.5s9.8-1.1,11.5-3.3c1.7-2.1,2.6-4.1,7.6-4.3,5-.2,6.7-3,6.7-3,3.8-3.4,1.2-4.7-1.2-4.7h0ZM213.7,1592.8s-6.3,1.3-4.3,3.5,7.2.4,4.3-3.5ZM531.5,1593.4s-3.5,2.2-7.6,4.1c-4.1,2-8.7,5-2.6,6.5s8.7,3.9,10.2-10.6ZM865.7,1597.5c-1.3,0-3,.8-5.8.8-5,0-4.1,3-7.4,9.5-3.2,6.6,6.1,4.4,10,4.4s3.2,2.2,5.4,6.1c2.2,3.9,3.5,8.6,6.5,9.5s1.7-4.1,1.7-4.1h.1l.9.2s-1.1-4.1-1.1-8-3.5-9.4-5.2-9.8-.9-3.9-2.6-6.9c-.8-1.4-1.5-1.7-2.5-1.7ZM244.8,1600.4c-1.9,0-3.4.4-3.9,1.3-1,1.7-1.9,3.7,3.3,3.7s6.9-3,6.9-3c-2.1-1.3-4.4-1.9-6.3-2ZM260,1602.5c-3.9,0-3.9,2.4-3.9,2.4l8,2.2.2-3.5s-.4-1.1-4.3-1.1ZM891.3,1603.2c-.4,0-.7,0-.9,0-1.6.5-4.6,3.3-4.6,3.3,0,0-4.3-1.1-6.5,1.5-.5.6-.8,1.1-.8,1.7-.2,1.9,1.6,4,1.4,10.1-.2,7.8,6.7-1.5,6.7-1.5v-.2c.7-1-1.5-3.3-3.6-5.3,1.5,1,3.1,1.8,4.3,1.4,0,0,0,0,0,0-.6,1.8-.6,3.9.6,6.1,0,0,6.3,3.5,8.5-1.3,2.2-4.8-.6-6.9-3.7-8.5-.3-.2-.7-.3-1.1-.2.4-.9.1-2.6-.2-4,.3.7.8,1.5,1.6,2.6,2.6,3.6,7.4,1.3,7.6-2,.2-2.9-6.6-3.9-9.3-3.8h0ZM885.8,1607.8s2,2.6,3.9,3.2c-.6.4-1.1.9-1.5,1.5-.3-2-2.4-4.8-2.4-4.8h0ZM902.6,1618.2c-1.1,0-2.4.5-3.6,1.5-4.1,3.5,6.1,7.6,6.1,7.6,0,0,6.6,6.7,9.6,4.1s-3.7-8.5-5.9-10.2c-1.5-1.2-3.6-3.1-6.2-3ZM893.2,1624.6c-1,0-1.9.8-2.5,2.7v.2s2.2,9.8,3.9,13.7,1.7,6.1,1.7,7.6,5.2,3,5.2,3l1.5,3s-6.5.6-7.6,2.8c-1.1,2.2.7,1.1,3.5,3.7s6.9,10.4,9.3,8,1.5-3.2-.4-7.2c-2-3.9-2.6-5.2-2.6-5.2,0,0,4.8,1.5,6.7,4.1,2,2.6,6.3,9.8,8.5,8.5s2-6.3-.6-8.7,3-3.9,1.3-6.3-4.8-.4-5.4-3.5c-.7-3,9.8-5.2,5.4-8.9-4.3-3.7-10.9.2-7.2,3.7l1.3,1.7s-2.8-.2-4.1-.6-3.3-2.2-3.3-5.7-1.5-7.6-1.5-7.6c0,0-.2-1.3-3-1.3s-6.9-7.8-10.1-7.7ZM926.5,1635.2c-.9,0-1.8.6-2.3,2.2v19.3s-1.5,3.9,4.1,3.9,6.1-1.7,4.6-6.5-2.8-6.7,0-9.1-3.5-5.4-3.3-7.2c.1-1.1-1.5-2.6-3.1-2.6ZM945.7,1656.7c-1.2,0-2.5.3-3,1.4l-.2,5s3.7,3.3,5,0,.4-6.1.4-6.1c0,0-1-.3-2.2-.3Z"/>
    <path id="HI" class="st0" d="M961.8,1402.1c-2.2,0-4.7.7-8.8.7-6.5,0-7.7.9-8.6,4-.9,3-3.3,3.3-7,6.4-3.7,3-7.1,7-.3,7s4.6,1.5,8.6,5.5,4,4.6,5.5,4.6h14.1c7.7,0,4.3-8.6,4.3-8.6h-.2c6.4-7.9,4.6-14.7,4-16.5s-3.6-.9-7.6-2.4c-1.5-.6-2.7-.7-4-.7ZM916.2,1414.8c-2.2,0-4.6,5.8-4.6,5.8,0,0-5.5-.3-8.6,6.4s.7,10.4,5.8,10.4-1.3-5.5,2.4-6.1,6.1-7,6.1-7h0s2.4-6.1,0-8.9c-.4-.4-.8-.6-1.2-.6ZM1070.4,1443.7c-3.9.1-6.7,9-10.2,8.7-3.7-.3-4.6-.6-8.3,3.4-3.7,4,.9,4.9.9,6.1s4.3,4,5.2,4.6c1,.6,1.6,3.3,3.1,6.7s4.6,6.1,7,3.4c2.4-2.8,5.2-5.8,6.4-5.2s2.1,3.6,4.9,6.7c2.8,3,6.2.9,9.8.9s7.6-1.6,6.4-2.8-3.4-3.6-4.3-7.9c-.9-4.2-4.7-.5-4.9-.3-1.5-.1-4.8-3.5-5.7-8.3-.9-4.9-3.7-6.4-4-9.5-.3-3-1.2-5.2-5.5-6.4-.3,0-.5-.1-.8,0h0ZM1121.9,1483.9c-.5,0-1.1.2-1.7,1-2.1,2.7-3.1,11-3.1,11h.2c2.4,0,6.4-.3,10.4,0s9.2,1.5,10.7,0,5.8,1.8,10.7,1.5c4.9-.3,10.1-.6,11-1.5s2.8-.3,6.4-2.8c3.7-2.4,1.8-4.6-3.1-4.6s-9.2,1.8-12.8-.9c-3.7-2.7-6.1-.3-8.9.3-2.8.6-5.2,2.4-8,.9s-7.6-1.8-8.6-2.4c-.6-.4-1.8-2.5-3.2-2.5h0ZM1176.8,1499.6c-.7,0-1.5.3-2.4,1.1-4,3.1-7.3,10.4-2.1,12.5s7.6,4.3,11.6,4.9c4,.6,3.4,3.1,3.4,3.1,0,0-1.5,11.9,6.1,12.8s8-1.2,12.8-1.2,12.2-1.8,12.5-7-.6-7.4-6.7-11c-6.1-3.7-9.5-6.4-11.6-6.7-2.1-.3-4.9.6-9.2.6s-7.6-2.8-9.8-4.9c-1.6-1.7-2.5-4.3-4.6-4.2ZM1144.3,1506.9c-3.1.1-4.5,1.2-1,4.6,0,0,4,3.4,4,6.1s3.7,9.2,7.3,6.4c3.7-2.8,8.6-3.1,5.5-7.3-3.1-4.3,2.8-7.6-4.3-8.6-3.5-.4-8.4-1.3-11.5-1.2ZM1233.4,1561c-3.5,0-5.8,2.3-4.6,8.3h0c0,0,1.2,1.9,1.2,5.9s3.1,7.3,0,10.4-5.8,3.1-5.2,7.3c.6,4.3-4.6.3-6.4,4.6s-2.1,9.8,0,12.5c2.1,2.8,6.1,5.8,6.1,7.6s-1.2,4.9,1.8,8.9c3.1,4,2.1,7.9.6,13.4s0,18.3,4.3,18.6c4.3.3,9.2,4.9,10.7,8s7.7,4.6,8.6-1.5,17.4-22,24.2-22,14.7-3.1,21.4-5.5c6.7-2.5,15.6-8.6,15.9-12.5.3-4-2.4-2.7-6.1-3.7-3.7-.9-8.3-11.9-11.6-15.6-3.4-3.7-2.1-6.7-4-8.3-1.8-1.5-11-8.3-13.2-11.3-2.1-3-8.9-9.2-11.3-9.5s-7.3-4.6-8-5.5c-.6-.9-4.6-.9-6.4-.9s-1.5-.3-8-5.2c-2.8-2.1-6.4-3.8-9.4-3.9-.2,0-.5,0-.7,0h0Z"/>
    <path id="MI" class="st0" d="M1677.7,238.1c-1.6,0-3.7.2-5.7,1.7-4.4,3.2-5.1,2-7.1,2.3-1.4.2-2.5.2-3.6,1.2-.7.7-1.2,1.8-2.3,3.6-.9,1.5-1.9,2.6-2.8,3.5-1.1,1.3-2.5,2.4-4.2,3-.2,0-.5.2-.8.3-1.5.7-4,1-6.3,1.6-2.3.7-4.1,1.7-4.1,3.5v3.7c.2,2,0,4.2-1.6,6.1-.8,1-1.9,1.9-3.5,2.4-.3.1-.6.3-.9.4-4.2,1.5-7,2.6-9.3,3.3-.9.4-1.5.6-1.5.6h-.9c-1.4.3-2.7.5-4.1.5-1.8.3-3.6.9-4.4,1.6-1.8,1.7-4.5,4.5-6.7,5.1-1.4.7-3.1,1-5.7,1h-.7c-2.1.6-4.2,1.5-5.6,3.3-1.3,1.7-1.8,4.4-2.2,6.7.4,2.5.5,4.5-2.2,4.7,0,0,1.1,4.2,5.1,5.3,2.2.6,4,1.6,5.5,2.6,1.3.7,2.6,1.5,3.8,2.6.2.2.4.3.6.5l1.2.9c2,1.4,4.5,2.4,7.1,2.9h.9c4.9,0,12.2-.8,12.9,1,.4.3.6.6.8,1,0,.2,0,.4.2.5,1.5.8,4.4.8,5.1.8s1,.2,1.8.5c1.4.2,3.1.5,4.4,1.2,1.4.2,3.3.7,5.7,2,4.4,2.5,20.9,11.7,25.1,12,4.2.4,7.4,2.7,8.8,5.8,1.2,2.6,3.7,5.6,5.7,7,.5.3,1,.5,1.3.8.7.2,1.5,1.2,2.2,2.5,1.3,2.3,2.5,5.8,2.5,8.9v.3c0,1.6,0,3.2.2,4.9.3,2.6,1.2,5.9,3.1,9.3l.9,1.5c1,1.5,2.2,3.1,3.6,4.6,0-.2-.2-.4-.2-.7-.2-1.7.6-5.4,1.7-9.4.8-4.5,1.8-9.6,3-12.8.5-1.4,1.3-3.1,2.2-5,.8-1.7,1.8-3.4,2.9-5.2,3.9-6.4,9.2-13.1,15-16.4,2.5-1.8,4.8-2.9,6.1-2.8.6,0,1.1.3,1.6.6,2.6.4,3,3,2.5,5.9,0,.4,0,.8-.2,1.2,0,.4-.2.8-.3,1.2-1.5,5.4-2.3,11.8,1.7,11.8s2.7-.9,2.5-2.2c-.2-1-.8-2.3-1.2-3.4-.7-2.1,0-3.5.9-4.8.2-.8.6-1.5,1.2-2.1.3-.3.7-.8,1-1.4,1.6-3.2,3.9-8.8,3.9-10.7,0,0,10.1-.3,18.9-4.5,4.1-2.1,8-5.2,10.5-9.7,0,0,3.2-.3,8.1.2,3.1.2,6.8.8,10.5,2.1,9.3,3.3,11,5.3,9.1,8-.3.8-.5,1.6-.5,2.3,0,1.2.7,2.4,1.6,3.1.3.2.5.3.8.4.6.2,1.2.3,1.6.2s.8-.3,1.2-.6.7-.7.9-1.1c.2-.5.3-1.1.4-1.8.2-2,.5-5.6,1.9-8,.4-.8.9-1.4,1.7-1.8.2,0,.3,0,.5-.2.3,0,.5,0,.8-.2,3.3-.2,5,0,6.2-.2.4-.2.7-.4,1-.8.2-.3.7-.5,1.3-.6,1.3-1,3.1.3,5.6.7.2,0,.5,0,.8.2,1.5.3,2.9.6,4.2.8,1.9.3,4.5.9,6.6,1.3,2.6.3,4.6,0,4.7-1.1.2-2.5,0-2.9,0-2.9,0,0,0,0,0,0,0,0,0,0,0,0h0s0,1,0,1c0,0-3.8.2-5.9-1.7-.3-.3-.7-.5-1-.8-2.1-1.2-5.2-2.6-6.6-5-1.6-1.6-3.3-3.1-4.4-3.9-.5-.3-.9-.5-1-.6-.2,0-.4-.5-.5-1.1-.4-1.2-.9-2.9-.9-4.1-.6-1.7-6.9-8.2-6.9-8.2,0,0-1.4-.6-3.2-.5-.4.1-.7.2-1.1.4-1.1.6-3.5,2.4-6.3,3.8-2.2,1.4-4.8,2.5-7.2,1.9-4.7-.4-8.1-4.5-7-8.7.2-.7.4-1.4.6-2.2.4-3.7.6-5.7.4-7-.3-.7-.7-1.3-1.2-1.9-.2-.1-.3-.2-.5-.3-1.3-.7-3-1.7-4.8-1.3-2.3.8-4.1,3.3-4.5,4,0,0,0,0,0,.2,0,0-1.6.6-2.9,1l-9.3,3.3c-1.9.8-3.4,1.4-3.4,1.4h-15.4s0,0,0,0h0s0,0-.2,0c-1.3.2-3.3.7-4.8,2.5-.6.8-1.1,1.9-1.5,3.3,0,0-2.4.8-4.9,2.2-3,2-6.2,4.9-6.1,8,.8,5.4-2,6.5-5.3,4.7-.9-.3-1.8-.9-2.7-1.7-3.7-3.3-11.5-4.6-15.3-2.3-1.7,1.1-3.1,1-4.5.3-1.9-.2-3.3-1.3-5.5-3.8-3.5-3.7-7-6.6-11.1-8.2-4-.8-5.7-2.3-7.7-3.6-.2-.2-.6-.3-.9-.5,0,0-.2,0-.3,0-.3-.1-.6-.3-1-.4-.4-.2-.9-.3-1.3-.4,0,0-.3,0-.4,0-1.3-.3-2.8-.5-4.6-.3,0,0-.7.3-1.3,0-1.1.3-2.1.7-2.9,1.5l2.2-1-2.8,2.3s-5.6,6-8.8,6.2v-.9c-.3-2.3-1.8-13.8,1.5-20.3.2-.6.5-1.2.8-1.6,3-3.9,3.3-3.3,7.3-5.7,1.7-1.2,2.2-1.5,3.2-2.8,1.7-2.2,4.1-3.9,6.6-4.2,1.7-.6,3.8-1.4,5.1-2.2,1-.9,1.6-2,1.4-3.3-.5-1.9-1.8-4.5-3-5.8-.3-.1-1.5-.7-3.1-.7h0ZM1817.3,322c-2.3,0-3.6,1.7-6,1.9-2.5.1-4.3.3-4.6,0,0,0,0,0,0,0h0c0,.1,1.5,3.2-.3,4.8-1.9,1.8-5.7,4.6-2.3,9.4s3.7,5.8-.2,8.3-12.6,5.3-10.6,15.4c1.9,10.1-2.5,18-2.5,18,0,0-3.4,1.4-2.8-2.1,0,0-4.8,2.1-4.2-2.5.5-4.6,3.9-14.5,2.1-15.9s-3.7,2.8-5.1,5.3-7.6,7.3-8.5,9.9c-.9,2.7-4.8,9-10.8,11-6,1.9-11.3,6.5-7.1,16.4s1.9,14.3.2,17.9c-1.8,3.5-6.4,11.5-3.2,18.4,0,0,1.4,2.5.9,6s1.4,11.1,3.9,14.9c2.5,3.7,9.9,13.4,10.4,15.9s1.8,2.5,1.2,11.8c-.5,9.4,1.1,16.8-.7,27.1-1.8,10.3-1.4,17.7-9.4,26-6.9,7.2-10.8,10.7-13.5,13.8l89-5.3,1.1,3.2h0c0,0,70.3-5.6,70.3-5.6,0-2.9,3.2-7.2,5-9.6,1.8-2.3,4-5.1,4-8.8s1.2-6.7,2.5-8.9,3.7-9.4,3.7-11.8-4.2-6.6-2.9-9.9c1.3-3.2,4.3-2.1,5.1-1.2s4.6,1.3,5.3-3c.7-4.2,2.7-8.7,2.2-12.5s-1.5-8-3.6-10.5c-2.1-2.6-1-7.7-1.1-8.8,0-1.1-1.2-9.1-2.9-15.2-1.7-6-6.1-18.4-9.9-24.3-3.8-5.8-12.7-12.7-19.4-6.4,0,0-3.1,4-4.4,4h-8.3s-.3,3.3.6,4.8c.9,1.6,1,3.7,0,5.1-1,1.5-3.2,3.5-4.9,5.1s-2.4,1.7-3.1,3.7-2.5,4.5-5.9,3.1c-3.4-1.5-11.1-5.8-10.1-12.6s5.6-11,7.4-11,4.5.3,4.5.3l3.4-3.8s-1.6-3.8.3-7.6,6-11.7,5.5-15.4c-.5-3.8-2.5-11.1-3.9-15.5-1.5-4.3-2.3-6.9-4-10.1s-2.6-10.7.3-7.7,7.2,5,5.1-.5c-2.1-5.6-2.1-6.2-2.7-7.8s-1-3.5-3-4.8c-2-1.4-4.4-4.8-4.8-5.5s-3.5,0-4.8.8c-1.3.8-3.8,1.5-6.7-.5s-6.4-3.5-9.5-3.5-7.3-.9-7.3-.9c0,0-2.2-1.8-3.8-1.7-1.7.1-3,.5-5.4-2.3s-7.6-8.7-9.9-8.7Z"/>
  </g>
</svg>