<?xml version="1.0" encoding="UTF-8"?>
<svg xmlns="http://www.w3.org/2000/svg" viewBox="0 0 1000 600" role="img" aria-label="Map of the United States">
  <desc>Stylized US map with each state as its own element for demo purposes.</desc>
  <style>
    .state { fill:#e0e0e0; stroke:#fff; stroke-width:1; }
    .state:hover { fill:#cfcfcf; }
    text{ font-family: Arial, Helvetica, sans-serif; font-size:10px; pointer-events:none; }
  </style>

  <!-- Note: This is a simplified schematic layout for demonstration. Replace with a precise SVG for production. -->

  <g id="states">
    <!-- West Coast -->
    <path id="state-CA" class="state usa-map-state" d="M90,360 L120,320 L150,320 L170,360 L160,410 L100,420 Z" data-state="CA"/>
    <path id="state-OR" class="state usa-map-state" d="M90,280 L140,260 L160,280 L150,320 L120,320 Z" data-state="OR"/>
    <path id="state-WA" class="state usa-map-state" d="M90,240 L130,220 L150,240 L140,260 L100,260 Z" data-state="WA"/>

    <!-- Mountain states -->
    <path id="state-NV" class="state usa-map-state" d="M160,300 L200,280 L220,300 L210,340 L170,340 Z" data-state="NV"/>
    <path id="state-ID" class="state usa-map-state" d="M180,240 L230,220 L250,240 L230,280 L190,280 Z" data-state="ID"/>
    <path id="state-UT" class="state usa-map-state" d="M200,320 L240,300 L260,320 L240,360 L210,360 Z" data-state="UT"/>
    <path id="state-AZ" class="state usa-map-state" d="M200,380 L240,360 L270,380 L250,420 L210,410 Z" data-state="AZ"/>
    <path id="state-NM" class="state usa-map-state" d="M280,380 L320,360 L350,380 L330,420 L290,410 Z" data-state="NM"/>

    <!-- Plains and central -->
    <path id="state-TX" class="state usa-map-state" d="M360,420 L470,380 L520,420 L500,480 L420,480 Z" data-state="TX"/>
    <path id="state-OK" class="state usa-map-state" d="M360,360 L420,340 L440,360 L420,380 L380,380 Z" data-state="OK"/>
    <path id="state-KS" class="state usa-map-state" d="M420,300 L470,280 L500,300 L480,340 L440,340 Z" data-state="KS"/>
    <path id="state-NE" class="state usa-map-state" d="M420,240 L470,220 L500,240 L480,280 L440,280 Z" data-state="NE"/>
    <path id="state-SD" class="state usa-map-state" d="M460,180 L510,160 L540,180 L520,220 L480,220 Z" data-state="SD"/>
    <path id="state-ND" class="state usa-map-state" d="M500,120 L550,100 L580,120 L560,160 L520,160 Z" data-state="ND"/>

    <!-- Midwest/East -->
    <path id="state-MN" class="state usa-map-state" d="M520,80 L570,60 L600,80 L580,120 L540,120 Z" data-state="MN"/>
    <path id="state-IA" class="state usa-map-state" d="M520,160 L560,140 L590,160 L570,200 L530,200 Z" data-state="IA"/>
    <path id="state-MO" class="state usa-map-state" d="M540,220 L580,200 L610,220 L590,260 L550,260 Z" data-state="MO"/>
    <path id="state-IL" class="state usa-map-state" d="M600,160 L640,140 L670,160 L650,200 L610,200 Z" data-state="IL"/>
    <path id="state-WI" class="state usa-map-state" d="M620,80 L660,60 L690,80 L670,120 L630,120 Z" data-state="WI"/>
    <path id="state-MI" class="state usa-map-state" d="M700,120 L740,100 L760,120 L740,160 L700,150 Z" data-state="MI"/>

    <!-- Northeast -->
    <path id="state-NY" class="state usa-map-state" d="M680,160 L720,140 L740,160 L730,200 L690,200 Z" data-state="NY"/>
    <path id="state-PA" class="state usa-map-state" d="M700,200 L740,180 L760,200 L740,240 L700,240 Z" data-state="PA"/>
    <path id="state-NJ" class="state usa-map-state" d="M740,220 L760,210 L770,230 L760,250 L740,250 Z" data-state="NJ"/>
    <path id="state-MA" class="state usa-map-state" d="M760,160 L790,140 L810,160 L800,190 L770,180 Z" data-state="MA"/>
    <path id="state-VT" class="state usa-map-state" d="M740,140 L760,130 L770,140 L760,150 L740,150 Z" data-state="VT"/>
    <path id="state-NH" class="state usa-map-state" d="M770,130 L790,120 L800,130 L790,140 L770,140 Z" data-state="NH"/>
    <path id="state-ME" class="state usa-map-state" d="M810,110 L840,90 L860,110 L840,140 L810,130 Z" data-state="ME"/>

    <!-- Southeast -->
    <path id="state-FL" class="state usa-map-state" d="M760,320 L800,300 L820,320 L800,360 L760,350 Z" data-state="FL"/>
    <path id="state-GA" class="state usa-map-state" d="M700,300 L740,280 L760,300 L740,340 L700,330 Z" data-state="GA"/>
    <path id="state-SC" class="state usa-map-state" d="M740,280 L760,270 L770,280 L760,300 L740,300 Z" data-state="SC"/>
    <path id="state-NC" class="state usa-map-state" d="M720,260 L740,240 L760,260 L750,280 L720,280 Z" data-state="NC"/>
    <path id="state-VA" class="state usa-map-state" d="M680,240 L700,220 L720,240 L710,260 L680,260 Z" data-state="VA"/>
    <path id="state-TN" class="state usa-map-state" d="M620,260 L660,240 L680,260 L660,300 L620,300 Z" data-state="TN"/>
    <path id="state-AL" class="state usa-map-state" d="M660,320 L700,300 L720,320 L700,360 L660,350 Z" data-state="AL"/>
    <path id="state-MS" class="state usa-map-state" d="M620,320 L660,300 L680,320 L660,340 L620,340 Z" data-state="MS"/>

    <!-- Upper South -->
    <path id="state-KY" class="state usa-map-state" d="M640,220 L680,200 L700,220 L680,240 L640,240 Z" data-state="KY"/>
    <path id="state-WV" class="state usa-map-state" d="M660,200 L680,180 L700,200 L690,220 L660,220 Z" data-state="WV"/>

    <!-- Small central states -->
    <path id="state-AR" class="state usa-map-state" d="M520,300 L560,280 L580,300 L560,320 L520,320 Z" data-state="AR"/>
    <path id="state-LA" class="state usa-map-state" d="M480,380 L520,360 L540,380 L520,410 L480,400 Z" data-state="LA"/>

    <!-- Simple placeholders for remaining states (you can replace with accurate shapes) -->
    <path id="state-CT" class="state usa-map-state" d="M730,180 L750,170 L760,180 L750,190 Z" data-state="CT"/>
    <path id="state-RI" class="state usa-map-state" d="M750,190 L760,185 L765,192 L760,197 Z" data-state="RI"/>
    <path id="state-DC" class="state usa-map-state" d="M705,220 L712,216 L716,222 L712,228 Z" data-state="DC"/>

  </g>

  <!-- Labels for debugging/visual checks (optional) -->
  <g id="labels" fill="#333" opacity="0.85">
    <text x="120" y="360">CA</text>
    <text x="120" y="280">OR</text>
    <text x="120" y="240">WA</text>
    <text x="220" y="300">NV</text>
    <text x="260" y="260">ID</text>
    <text x="230" y="340">UT</text>
    <text x="240" y="400">AZ</text>
    <text x="300" y="400">NM</text>
    <text x="460" y="420">TX</text>
    <text x="400" y="360">OK</text>
    <text x="470" y="300">KS</text>
    <text x="490" y="220">NE</text>
    <text x="520" y="140">IA</text>
    <text x="600" y="180">IL</text>
    <text x="700" y="140">NY</text>
    <text x="760" y="320">FL</text>
  </g>

</svg>
